<svg id="svg" version="1.1" width="800" height="800" xmlns="http://www.w3.org/2000/svg"><path d="M46.779 131.911 C 37.902 132.479,35.666 132.956,33.779 134.684 C 32.525 135.831,30.547 137.058,29.382 137.411 C 28.217 137.763,26.460 138.940,25.477 140.026 C 24.494 141.111,23.134 142.000,22.455 142.000 C 20.839 142.000,10.001 152.677,9.998 154.271 C 9.997 154.947,8.563 158.200,6.811 161.500 C 3.981 166.833,3.543 168.779,2.879 179.000 C 2.230 188.978,2.392 191.356,4.100 196.965 C 5.182 200.521,7.403 205.511,9.034 208.053 C 10.665 210.595,12.006 213.086,12.014 213.588 C 12.055 216.224,29.417 227.848,37.088 230.374 C 45.190 233.043,65.388 232.393,72.324 229.240 C 74.977 228.034,76.903 226.653,76.605 226.170 C 75.977 225.153,83.401 219.612,86.822 218.544 C 88.171 218.123,88.933 217.269,88.640 216.505 C 88.363 215.782,90.353 212.786,93.062 209.846 C 96.500 206.115,97.990 203.657,97.994 201.710 C 97.997 200.176,98.900 197.156,100.000 195.000 C 102.265 190.560,102.390 188.887,101.043 181.060 C 100.516 178.002,99.545 172.350,98.886 168.500 C 97.398 159.820,95.966 156.316,92.336 152.479 C 90.776 150.830,88.700 148.360,87.722 146.990 L 85.945 144.500 86.616 146.989 C 87.187 149.110,86.636 148.814,82.893 144.989 C 76.601 138.560,65.894 131.885,61.293 131.523 C 59.207 131.359,52.675 131.534,46.779 131.911 M65.532 134.449 C 67.439 135.246,69.000 136.098,69.000 136.343 C 69.000 136.819,63.424 135.629,58.500 134.102 L 55.500 133.172 58.782 133.086 C 60.587 133.039,63.625 133.652,65.532 134.449 M41.500 135.000 C 41.160 135.550,39.446 135.955,37.691 135.900 C 34.644 135.805,34.613 135.765,37.000 135.000 C 40.591 133.850,42.211 133.850,41.500 135.000 M60.449 137.986 C 73.640 140.146,85.110 148.848,91.589 161.610 L 95.500 169.313 95.500 182.406 C 95.500 195.200,95.422 195.666,92.111 202.730 C 87.873 211.771,79.985 219.592,70.659 223.998 C 64.408 226.952,63.356 227.132,52.232 227.148 C 40.974 227.164,40.124 227.016,33.648 223.923 C 20.707 217.742,11.592 206.675,8.516 193.411 C 0.799 160.139,26.730 132.464,60.449 137.986 M18.320 179.000 C 18.320 182.575,18.502 184.037,18.723 182.250 C 18.945 180.463,18.945 177.537,18.723 175.750 C 18.502 173.963,18.320 175.425,18.320 179.000 M100.693 188.731 C 100.439 189.704,100.215 189.150,100.195 187.500 C 100.175 185.850,100.382 185.054,100.656 185.731 C 100.930 186.408,100.947 187.758,100.693 188.731 M1.541 209.263 C 1.961 210.962,1.740 212.608,0.969 213.537 C -0.528 215.341,0.016 216.226,1.904 215.059 C 3.572 214.029,3.669 209.262,2.054 207.675 C 1.129 206.766,1.013 207.126,1.541 209.263 M87.000 216.500 C 87.000 216.775,86.775 217.000,86.500 217.000 C 86.225 217.000,86.000 216.775,86.000 216.500 C 86.000 216.225,86.225 216.000,86.500 216.000 C 86.775 216.000,87.000 216.225,87.000 216.500 M48.750 221.706 C 49.987 221.944,52.013 221.944,53.250 221.706 C 54.487 221.467,53.475 221.272,51.000 221.272 C 48.525 221.272,47.513 221.467,48.750 221.706 M338.000 239.500 C 338.000 239.775,338.225 240.000,338.500 240.000 C 338.775 240.000,339.000 239.775,339.000 239.500 C 339.000 239.225,338.775 239.000,338.500 239.000 C 338.225 239.000,338.000 239.225,338.000 239.500 M159.000 242.019 C 144.002 243.047,133.427 245.345,127.811 248.797 C 125.990 249.916,122.700 251.158,120.500 251.557 C 118.004 252.009,114.245 254.054,110.500 256.996 C 107.200 259.590,103.375 262.300,102.000 263.019 C 100.625 263.738,97.854 266.166,95.841 268.413 L 92.183 272.500 92.341 264.500 C 92.527 255.139,90.491 249.764,86.180 248.233 C 84.706 247.710,68.641 247.192,50.480 247.081 L 17.460 246.881 14.980 249.521 L 12.500 252.161 12.203 387.330 C 12.040 461.674,12.188 524.891,12.533 527.813 C 13.071 532.376,13.608 533.408,16.330 535.119 C 19.367 537.028,20.873 537.094,52.222 536.689 C 90.435 536.195,89.534 536.403,91.458 527.662 C 91.913 525.595,92.411 525.094,93.291 525.817 C 93.956 526.364,97.049 527.549,100.165 528.452 C 103.748 529.490,106.386 530.940,107.340 532.397 C 108.357 533.948,111.245 535.432,116.175 536.936 C 120.204 538.165,124.536 539.583,125.801 540.087 C 139.028 545.355,191.719 545.245,202.143 539.927 C 204.221 538.867,206.589 538.000,207.406 538.000 C 208.224 538.000,212.371 536.200,216.622 534.000 C 220.874 531.800,225.130 530.000,226.081 530.000 C 227.033 530.000,229.696 528.425,232.000 526.500 C 234.304 524.575,236.556 523.000,237.004 523.000 C 239.417 523.000,258.079 500.499,259.553 495.812 C 259.953 494.540,261.117 491.932,262.140 490.015 C 263.163 488.098,264.000 485.698,264.000 484.681 C 264.000 481.624,266.334 483.333,269.124 488.433 C 273.259 495.994,292.129 515.335,299.347 519.411 C 302.731 521.322,306.676 524.148,308.113 525.693 C 309.661 527.356,316.459 531.048,324.799 534.754 C 338.086 540.658,339.592 541.091,351.763 542.510 C 365.958 544.164,396.725 543.957,405.604 542.147 C 411.169 541.013,414.394 539.736,426.502 533.874 C 430.902 531.743,435.273 530.000,436.213 530.000 C 437.153 530.000,439.655 528.313,441.772 526.250 C 446.163 521.972,455.632 515.000,457.050 515.000 C 457.573 515.000,458.000 518.719,458.000 523.277 C 458.000 535.712,461.247 538.984,473.000 538.392 C 476.575 538.212,491.347 538.050,505.827 538.032 L 532.154 538.000 535.205 534.949 L 538.256 531.897 537.811 512.449 C 537.566 501.752,537.516 493.000,537.700 493.000 C 537.885 493.000,541.515 496.488,545.768 500.750 C 550.021 505.012,554.640 509.087,556.034 509.804 C 557.428 510.521,561.253 513.404,564.534 516.211 C 567.815 519.018,572.300 522.158,574.500 523.188 C 576.700 524.218,579.175 525.491,580.000 526.015 C 584.422 528.828,601.680 536.161,607.166 537.559 C 610.650 538.446,615.975 539.797,619.000 540.560 C 622.025 541.324,630.350 542.399,637.500 542.948 C 644.650 543.498,651.925 544.494,653.666 545.161 C 656.154 546.115,657.654 546.113,660.666 545.149 C 662.775 544.474,671.475 543.777,680.000 543.598 C 696.531 543.253,704.214 542.124,715.668 538.357 C 719.610 537.061,723.624 536.000,724.588 536.000 C 728.335 536.000,749.956 525.772,753.320 522.408 C 754.627 521.100,759.028 517.848,763.098 515.181 C 767.169 512.513,772.948 508.231,775.940 505.665 C 778.932 503.099,781.680 501.000,782.045 501.000 C 782.411 501.000,785.490 496.731,788.888 491.514 C 794.841 482.372,795.014 481.927,793.635 479.261 C 791.829 475.769,790.162 474.373,781.500 469.102 C 774.138 464.622,762.412 456.595,759.323 453.922 C 755.846 450.912,738.231 441.000,736.370 441.007 C 733.820 441.016,730.456 443.382,722.518 450.750 C 718.814 454.188,715.127 457.000,714.325 457.000 C 713.523 457.000,711.434 458.074,709.683 459.386 C 704.656 463.153,698.910 465.677,693.591 466.454 C 690.892 466.848,687.517 467.652,686.091 468.241 C 684.666 468.831,682.600 469.222,681.500 469.112 C 679.849 468.946,679.761 469.087,681.000 469.921 C 682.083 470.651,680.832 470.895,676.500 470.797 C 673.200 470.723,668.250 470.781,665.500 470.925 C 655.062 471.474,639.383 469.323,633.293 466.507 C 630.107 465.034,624.671 462.944,621.213 461.863 C 615.671 460.130,613.921 458.878,606.441 451.296 C 596.512 441.232,588.316 427.879,587.373 420.228 C 587.052 417.628,585.788 412.800,584.564 409.500 C 582.522 403.998,582.386 402.337,582.919 389.474 C 583.436 376.992,583.745 375.136,585.724 372.622 C 586.947 371.068,588.255 368.155,588.631 366.149 C 589.696 360.460,591.934 355.827,595.558 351.810 C 597.389 349.780,599.571 346.797,600.407 345.180 C 601.982 342.134,615.344 330.000,617.124 330.000 C 617.679 330.000,619.566 328.910,621.317 327.577 C 624.647 325.043,630.562 322.554,637.750 320.663 C 640.087 320.048,642.000 319.212,642.000 318.804 C 642.000 318.396,641.212 318.340,640.250 318.679 C 638.843 319.174,638.738 319.037,639.718 317.979 C 640.685 316.935,641.728 316.902,644.780 317.816 C 647.440 318.613,649.682 318.665,652.056 317.984 C 653.943 317.443,661.199 317.000,668.180 317.000 C 681.604 317.000,694.724 319.292,699.185 322.417 C 700.428 323.288,702.182 324.000,703.083 324.000 C 703.984 324.000,706.390 325.132,708.429 326.517 C 710.469 327.901,712.562 328.771,713.081 328.450 C 714.297 327.698,724.735 336.589,725.512 339.038 C 726.355 341.695,732.145 344.988,736.118 345.070 C 738.917 345.128,739.155 345.289,737.500 346.000 C 736.400 346.473,736.081 346.891,736.790 346.930 C 737.500 346.968,739.300 346.170,740.790 345.156 C 751.356 337.967,757.206 335.000,760.813 335.000 C 761.845 335.000,763.517 334.086,764.528 332.969 C 766.706 330.563,780.111 323.000,782.199 323.000 C 782.998 323.000,784.702 321.882,785.986 320.515 C 787.269 319.149,789.807 317.752,791.624 317.411 C 793.442 317.070,795.507 316.079,796.214 315.208 C 797.326 313.840,797.229 313.727,795.500 314.375 C 793.682 315.055,793.705 314.932,795.750 313.023 C 796.987 311.867,798.000 310.432,798.000 309.833 C 798.000 307.589,791.979 298.334,788.017 294.488 C 785.756 292.295,783.019 288.813,781.933 286.750 C 780.848 284.688,779.555 283.000,779.060 283.000 C 778.566 283.000,775.680 280.732,772.647 277.960 C 769.614 275.188,764.515 271.540,761.316 269.853 C 758.117 268.166,754.375 265.769,753.000 264.526 C 751.625 263.284,747.350 260.823,743.500 259.058 C 739.650 257.293,734.700 254.988,732.500 253.936 C 730.300 252.883,726.925 251.752,725.000 251.423 C 723.075 251.093,719.700 250.146,717.500 249.317 C 715.300 248.488,710.575 247.188,707.000 246.428 C 703.425 245.668,697.575 244.332,694.000 243.458 C 685.042 241.268,642.857 241.326,637.569 243.536 C 635.642 244.341,632.436 245.000,630.446 245.000 C 625.773 245.000,614.668 247.714,609.303 250.168 C 606.994 251.224,602.627 252.491,599.599 252.984 C 596.570 253.477,593.219 254.347,592.152 254.919 C 588.466 256.891,574.493 266.263,572.381 268.180 C 570.448 269.934,564.222 273.598,556.500 277.526 C 554.850 278.365,550.125 282.822,546.000 287.429 C 541.875 292.037,538.120 295.850,537.656 295.904 C 537.191 295.957,536.961 286.560,537.143 275.023 C 537.537 250.162,537.873 250.981,526.722 249.661 C 515.136 248.290,481.982 247.770,480.576 248.937 C 479.753 249.620,478.210 249.634,475.929 248.980 C 471.516 247.714,467.000 247.724,467.000 249.000 C 467.000 249.550,465.875 250.000,464.500 250.000 C 459.610 250.000,458.000 253.077,458.000 262.427 C 458.000 272.837,456.515 273.840,450.714 267.349 C 448.632 265.019,445.932 262.801,444.714 262.421 C 443.496 262.041,441.022 260.441,439.215 258.865 C 437.409 257.289,435.453 256.000,434.870 256.000 C 434.286 256.000,432.614 255.172,431.154 254.161 C 427.440 251.587,410.980 246.000,407.111 246.000 C 405.345 246.000,402.550 245.301,400.898 244.448 C 397.141 242.505,375.983 240.595,366.500 241.343 C 353.939 242.333,344.963 243.923,340.312 245.980 C 337.800 247.091,334.948 248.000,333.972 248.000 C 332.997 248.000,329.791 249.121,326.849 250.490 C 323.907 251.860,320.222 252.985,318.659 252.990 C 316.768 252.997,314.095 254.461,310.659 257.372 C 307.822 259.776,304.060 262.476,302.300 263.372 C 300.540 264.267,298.740 265.614,298.300 266.364 C 297.860 267.115,296.123 268.433,294.439 269.292 C 292.756 270.152,288.481 273.885,284.939 277.588 C 281.398 281.290,276.363 286.457,273.750 289.069 C 269.644 293.175,268.337 295.247,269.220 296.250 C 269.694 296.788,262.848 306.000,261.975 306.000 C 260.568 306.000,257.871 310.567,257.550 313.495 C 257.393 314.922,256.366 317.081,255.267 318.294 C 254.168 319.507,252.978 322.045,252.622 323.934 C 252.267 325.823,251.267 328.153,250.399 329.111 C 249.532 330.070,248.434 332.349,247.960 334.177 C 247.486 336.005,246.148 340.154,244.987 343.397 C 243.826 346.640,242.448 352.940,241.923 357.397 C 241.399 361.854,240.537 367.300,240.009 369.500 C 239.480 371.700,239.037 376.599,239.024 380.387 L 239.000 387.274 234.167 382.753 C 231.509 380.267,227.921 377.922,226.194 377.543 C 224.467 377.163,222.015 375.618,220.745 374.109 C 219.475 372.599,212.375 368.069,204.968 364.042 C 197.561 360.015,190.296 355.606,188.825 354.245 C 187.354 352.884,184.166 351.399,181.740 350.946 C 179.314 350.493,175.101 348.737,172.379 347.045 C 169.657 345.352,166.465 343.782,165.286 343.555 C 164.107 343.328,162.192 342.192,161.031 341.031 C 159.870 339.870,157.857 338.516,156.558 338.022 C 150.353 335.663,145.875 324.233,149.774 320.705 C 156.526 314.594,171.541 313.158,181.777 317.643 C 194.976 323.426,197.996 325.178,202.602 329.722 C 209.401 336.428,211.961 337.986,216.193 337.993 C 219.267 337.999,221.038 337.006,226.758 332.071 C 230.537 328.810,234.899 324.310,236.451 322.071 C 238.002 319.832,239.858 318.000,240.574 318.000 C 241.290 318.000,244.873 315.075,248.537 311.500 C 252.202 307.925,255.628 305.000,256.151 305.000 C 256.674 305.000,257.799 303.313,258.651 301.250 C 259.502 299.188,260.890 296.723,261.734 295.773 C 264.781 292.343,260.098 280.733,254.671 278.260 C 253.431 277.695,251.311 275.609,249.959 273.623 C 248.606 271.638,246.882 270.011,246.128 270.007 C 244.983 270.001,244.975 270.291,246.077 271.750 C 246.804 272.712,245.397 271.674,242.950 269.443 C 238.339 265.240,227.703 258.000,226.138 258.000 C 225.647 258.000,224.627 257.239,223.872 256.308 C 222.689 254.849,222.706 254.738,224.000 255.500 C 225.294 256.262,225.311 256.151,224.128 254.692 C 223.373 253.761,222.144 253.000,221.397 253.000 C 220.651 253.000,217.218 251.920,213.770 250.599 C 210.321 249.278,204.125 247.411,200.000 246.450 C 195.875 245.488,191.270 244.086,189.767 243.334 C 188.263 242.581,185.788 242.040,184.267 242.132 C 182.745 242.223,179.025 242.057,176.000 241.764 C 172.975 241.471,165.325 241.586,159.000 242.019 M202.287 251.374 C 214.026 255.336,225.115 260.776,234.500 267.177 C 241.749 272.121,259.000 289.483,259.000 291.835 C 259.000 292.761,249.562 302.948,238.026 314.474 L 217.052 335.430 214.582 333.465 C 196.163 318.818,189.454 314.687,179.698 311.984 C 166.508 308.328,155.311 310.023,148.652 316.682 C 144.370 320.963,143.556 323.364,144.261 329.622 C 145.163 337.626,151.322 342.189,180.379 356.380 C 211.029 371.348,229.295 382.552,238.957 392.311 C 242.814 396.206,242.900 396.237,243.374 393.892 C 243.640 392.576,244.315 384.750,244.875 376.500 C 246.161 357.519,248.792 345.643,255.330 329.304 C 268.516 296.351,297.890 266.614,329.000 254.726 C 347.519 247.648,348.454 247.500,374.500 247.500 C 398.261 247.500,398.590 247.529,407.500 250.405 C 418.490 253.953,433.137 260.634,439.658 265.074 C 442.321 266.887,448.401 271.662,453.170 275.685 C 457.938 279.708,462.089 283.000,462.393 283.000 C 462.698 283.000,463.071 276.363,463.223 268.250 L 463.500 253.500 496.000 253.221 C 513.875 253.067,529.506 253.186,530.734 253.486 L 532.969 254.030 533.234 282.265 L 533.500 310.500 536.642 306.000 C 540.354 300.682,554.606 285.978,561.000 280.869 C 576.187 268.733,591.925 260.492,612.000 254.164 C 625.135 250.024,629.917 248.973,640.593 247.879 C 652.500 246.659,692.718 247.324,699.500 248.853 C 725.684 254.756,744.440 263.158,764.000 277.749 C 774.842 285.837,794.873 307.779,793.476 310.039 C 792.992 310.823,788.822 313.258,776.000 320.246 C 761.531 328.131,748.049 335.616,743.706 338.175 C 741.069 339.729,738.022 341.000,736.934 341.000 C 735.846 341.000,733.053 339.282,730.728 337.182 C 722.988 330.193,713.824 323.726,706.623 320.171 C 694.716 314.292,687.522 312.764,669.333 312.252 C 655.315 311.858,651.913 312.083,643.734 313.947 C 632.435 316.521,622.117 320.584,614.486 325.466 C 598.253 335.850,582.573 358.075,580.517 373.612 C 580.162 376.300,579.573 380.075,579.209 382.000 C 578.152 387.595,578.419 403.801,579.713 412.589 C 581.552 425.082,589.274 440.479,598.727 450.500 C 613.658 466.329,633.730 474.701,659.285 475.761 C 676.793 476.486,693.906 473.072,708.129 466.015 C 714.893 462.659,727.030 453.798,731.946 448.625 C 733.842 446.631,735.979 445.000,736.697 445.000 C 737.414 445.000,742.386 448.038,747.746 451.750 C 753.106 455.462,761.804 461.425,767.074 465.000 C 772.344 468.575,779.528 473.525,783.039 476.000 C 786.550 478.475,789.859 480.801,790.391 481.170 C 791.847 482.178,780.865 495.041,771.640 503.131 C 748.039 523.828,720.578 535.281,684.500 539.472 C 664.306 541.818,652.522 541.371,628.661 537.355 C 591.424 531.087,559.497 512.498,539.319 485.334 L 533.500 477.500 532.960 505.000 C 532.662 520.125,532.325 532.618,532.210 532.763 C 532.094 532.908,516.587 532.908,497.750 532.763 L 463.500 532.500 463.222 518.750 C 463.067 511.109,462.529 505.000,462.011 505.000 C 461.498 505.000,460.273 505.822,459.289 506.827 C 456.183 509.999,443.720 519.573,437.988 523.191 C 422.869 532.735,408.486 537.516,387.174 540.084 C 375.314 541.513,360.572 540.306,347.864 536.866 C 343.814 535.769,339.150 534.507,337.500 534.061 C 332.866 532.807,324.969 529.470,320.000 526.666 C 317.525 525.269,313.711 523.137,311.524 521.927 C 305.941 518.840,290.476 506.258,284.406 499.865 C 278.218 493.347,267.887 479.789,265.460 475.000 L 263.686 471.500 260.991 479.500 C 257.169 490.850,254.109 496.426,246.608 505.717 C 238.494 515.767,228.566 523.651,216.622 529.530 C 205.714 534.899,195.980 537.499,178.404 539.737 C 166.867 541.207,163.836 541.247,152.954 540.077 C 139.818 538.665,126.536 535.530,116.159 531.392 C 108.352 528.279,104.544 526.190,95.220 519.906 C 91.216 517.208,87.748 515.000,87.512 515.000 C 87.277 515.000,86.953 518.487,86.792 522.750 L 86.500 530.500 51.500 530.500 L 16.500 530.500 16.500 391.500 L 16.500 252.500 50.933 252.237 C 77.814 252.031,85.541 252.250,86.167 253.237 C 86.608 253.931,86.976 262.314,86.985 271.864 L 87.000 289.228 91.083 283.114 C 98.369 272.203,111.463 261.343,125.000 254.985 C 139.450 248.198,146.653 247.040,172.000 247.432 C 191.431 247.732,191.538 247.746,202.287 251.374 M502.206 249.743 C 498.195 249.934,491.895 249.932,488.206 249.741 C 484.518 249.549,487.800 249.393,495.500 249.395 C 503.200 249.396,506.218 249.553,502.206 249.743 M316.139 257.033 C 313.916 258.885,312.000 259.579,312.000 258.532 C 312.000 258.043,317.131 255.085,318.000 255.073 C 318.275 255.070,317.438 255.952,316.139 257.033 M116.000 256.393 C 116.000 256.609,115.302 257.054,114.448 257.382 C 113.558 257.723,113.157 257.555,113.507 256.989 C 114.094 256.038,116.000 255.583,116.000 256.393 M155.750 258.662 C 156.438 258.940,157.563 258.940,158.250 258.662 C 158.938 258.385,158.375 258.158,157.000 258.158 C 155.625 258.158,155.063 258.385,155.750 258.662 M181.762 258.707 C 183.006 258.946,184.806 258.937,185.762 258.687 C 186.718 258.437,185.700 258.241,183.500 258.252 C 181.300 258.263,180.518 258.468,181.762 258.707 M383.269 258.693 C 384.242 258.947,385.592 258.930,386.269 258.656 C 386.946 258.382,386.150 258.175,384.500 258.195 C 382.850 258.215,382.296 258.439,383.269 258.693 M634.813 258.683 C 635.534 258.972,636.397 258.936,636.729 258.604 C 637.061 258.272,636.471 258.036,635.417 258.079 C 634.252 258.127,634.015 258.364,634.813 258.683 M439.493 259.989 C 439.843 260.555,439.442 260.723,438.552 260.382 C 436.820 259.717,436.503 259.000,437.941 259.000 C 438.459 259.000,439.157 259.445,439.493 259.989 M474.349 270.000 C 474.349 274.675,474.522 276.587,474.732 274.250 C 474.943 271.913,474.943 268.087,474.732 265.750 C 474.522 263.413,474.349 265.325,474.349 270.000 M221.000 273.000 C 221.000 273.733,221.300 274.033,221.667 273.667 C 222.033 273.300,222.033 272.700,221.667 272.333 C 221.300 271.967,221.000 272.267,221.000 273.000 M766.500 275.000 C 766.840 275.550,766.893 276.000,766.618 276.000 C 766.343 276.000,765.840 275.550,765.500 275.000 C 765.160 274.450,765.107 274.000,765.382 274.000 C 765.657 274.000,766.160 274.450,766.500 275.000 M311.333 279.667 C 311.700 280.033,312.300 280.033,312.667 279.667 C 313.033 279.300,312.733 279.000,312.000 279.000 C 311.267 279.000,310.967 279.300,311.333 279.667 M555.500 282.000 C 554.505 283.100,553.197 283.985,552.595 283.967 C 551.993 283.948,552.562 283.048,553.861 281.967 C 556.915 279.423,557.816 279.441,555.500 282.000 M257.033 283.500 C 258.390 285.350,258.369 285.397,256.750 284.128 C 255.787 283.373,255.000 282.285,255.000 281.711 C 255.000 281.137,255.127 280.854,255.283 281.083 C 255.439 281.313,256.226 282.400,257.033 283.500 M283.000 282.500 C 283.000 282.775,282.775 283.000,282.500 283.000 C 282.225 283.000,282.000 282.775,282.000 282.500 C 282.000 282.225,282.225 282.000,282.500 282.000 C 282.775 282.000,283.000 282.225,283.000 282.500 M779.544 286.072 C 780.940 288.330,779.224 287.864,776.921 285.360 C 774.613 282.851,774.602 282.782,776.694 283.870 C 777.901 284.497,779.184 285.488,779.544 286.072 M273.786 293.195 C 272.985 294.403,271.692 295.589,270.914 295.832 C 270.136 296.075,270.591 295.088,271.924 293.637 C 274.873 290.429,275.763 290.218,273.786 293.195 M90.333 298.667 C 90.700 299.033,91.300 299.033,91.667 298.667 C 92.033 298.300,91.733 298.000,91.000 298.000 C 90.267 298.000,89.967 298.300,90.333 298.667 M256.500 302.000 C 255.505 303.100,254.197 303.990,253.595 303.978 C 252.993 303.966,253.625 303.076,255.000 302.000 C 258.221 299.480,258.780 299.480,256.500 302.000 M148.333 301.667 C 148.700 302.033,149.300 302.033,149.667 301.667 C 150.033 301.300,149.733 301.000,149.000 301.000 C 148.267 301.000,147.967 301.300,148.333 301.667 M279.000 308.500 C 279.000 308.775,279.225 309.000,279.500 309.000 C 279.775 309.000,280.000 308.775,280.000 308.500 C 280.000 308.225,279.775 308.000,279.500 308.000 C 279.225 308.000,279.000 308.225,279.000 308.500 M261.000 310.500 C 261.000 310.775,260.775 311.000,260.500 311.000 C 260.225 311.000,260.000 310.775,260.000 310.500 C 260.000 310.225,260.225 310.000,260.500 310.000 C 260.775 310.000,261.000 310.225,261.000 310.500 M377.936 311.979 C 355.830 314.829,335.338 329.307,323.627 350.350 C 312.645 370.083,310.789 400.610,319.074 425.225 C 322.765 436.192,327.810 443.908,337.966 454.121 C 346.322 462.524,348.754 464.328,357.178 468.371 C 362.483 470.917,367.516 473.000,368.363 473.000 C 369.209 473.000,372.494 473.675,375.661 474.500 C 390.628 478.398,411.854 474.793,427.500 465.695 C 433.841 462.008,443.890 452.999,449.815 445.689 C 455.635 438.508,461.778 424.032,464.171 411.861 C 465.778 403.688,465.782 382.332,464.179 374.188 C 462.742 366.891,459.168 356.849,455.241 349.075 C 451.682 342.031,435.358 325.408,427.806 321.137 C 413.297 312.933,395.662 309.694,377.936 311.979 M405.382 317.873 C 407.097 318.903,410.360 320.025,412.634 320.366 C 416.202 320.902,422.330 323.415,431.986 328.302 C 433.353 328.994,434.928 330.472,435.486 331.586 C 436.043 332.700,438.852 336.000,441.728 338.919 C 447.051 344.323,451.528 351.263,452.692 355.917 C 453.048 357.338,454.161 359.850,455.165 361.500 C 456.170 363.150,457.004 365.625,457.018 367.000 C 457.032 368.375,457.934 371.462,459.022 373.859 C 460.663 377.476,461.000 380.402,461.000 391.044 C 461.000 398.098,460.521 405.129,459.936 406.667 C 459.351 408.206,457.778 413.523,456.440 418.483 C 453.224 430.404,449.306 441.496,448.305 441.515 C 446.558 441.549,444.905 443.291,443.553 446.526 C 442.633 448.729,440.976 450.402,438.819 451.305 C 436.993 452.069,433.814 454.563,431.753 456.847 C 428.123 460.869,417.170 467.000,413.613 467.000 C 412.682 467.000,410.220 467.868,408.141 468.928 C 404.972 470.545,402.439 470.831,392.431 470.704 C 385.869 470.621,379.535 470.894,378.355 471.310 C 376.928 471.815,375.699 471.556,374.681 470.538 C 372.730 468.587,368.570 467.000,365.406 467.000 C 362.455 467.000,352.171 461.941,349.848 459.346 C 343.716 452.496,341.017 450.000,339.742 450.000 C 338.940 450.000,336.618 447.300,334.581 444.000 C 330.812 437.895,329.615 436.608,330.626 439.750 C 331.085 441.177,330.999 441.232,330.160 440.048 C 329.595 439.249,329.333 438.270,329.579 437.873 C 330.082 437.058,328.346 432.733,326.037 429.047 C 322.192 422.912,319.182 406.922,318.838 390.808 C 318.592 379.282,318.834 376.763,320.646 372.000 C 321.797 368.975,323.052 364.354,323.434 361.731 C 323.816 359.108,324.533 357.212,325.029 357.518 C 325.524 357.824,327.122 355.695,328.581 352.787 C 330.039 349.879,334.629 343.300,338.780 338.167 C 345.917 329.342,346.822 328.599,355.414 324.502 C 360.411 322.119,366.075 319.900,368.000 319.570 C 369.925 319.241,372.625 318.347,374.000 317.584 C 375.739 316.619,380.422 316.166,389.382 316.098 C 400.309 316.015,402.737 316.284,405.382 317.873 M410.000 317.500 C 410.000 317.775,409.775 318.000,409.500 318.000 C 409.225 318.000,409.000 317.775,409.000 317.500 C 409.000 317.225,409.225 317.000,409.500 317.000 C 409.775 317.000,410.000 317.225,410.000 317.500 M151.128 335.750 C 152.371 337.336,152.336 337.371,150.750 336.128 C 149.084 334.821,148.555 334.000,149.378 334.000 C 149.585 334.000,150.373 334.788,151.128 335.750 M729.000 339.500 C 729.000 339.775,728.775 340.000,728.500 340.000 C 728.225 340.000,728.000 339.775,728.000 339.500 C 728.000 339.225,728.225 339.000,728.500 339.000 C 728.775 339.000,729.000 339.225,729.000 339.500 M581.000 341.500 C 581.000 341.775,581.225 342.000,581.500 342.000 C 581.775 342.000,582.000 341.775,582.000 341.500 C 582.000 341.225,581.775 341.000,581.500 341.000 C 581.225 341.000,581.000 341.225,581.000 341.500 M597.030 346.944 C 596.457 348.014,595.472 349.208,594.840 349.599 C 594.070 350.075,593.958 349.846,594.501 348.905 C 596.646 345.187,598.910 343.432,597.030 346.944 M185.559 354.468 C 186.626 355.276,187.024 355.951,186.441 355.968 C 185.859 355.986,184.509 355.339,183.441 354.532 C 182.374 353.724,181.976 353.049,182.559 353.032 C 183.141 353.014,184.491 353.661,185.559 354.468 M87.010 416.250 C 87.004 446.187,87.383 469.000,87.885 469.000 C 88.372 469.000,89.551 467.808,90.506 466.350 C 93.674 461.515,108.248 447.000,109.935 447.000 C 110.847 447.000,113.373 448.843,115.547 451.096 C 124.909 460.796,140.306 470.387,153.829 474.942 C 162.338 477.809,175.962 477.802,182.666 474.929 C 193.582 470.250,197.990 464.706,197.996 455.651 C 198.001 448.068,196.069 444.178,189.167 437.869 C 181.808 431.144,180.251 430.207,154.524 417.035 C 142.453 410.855,128.062 402.806,122.544 399.149 C 110.458 391.139,96.103 377.709,90.855 369.500 L 87.019 363.500 87.010 416.250 M221.559 372.468 C 224.098 374.389,225.584 374.408,224.000 372.500 C 223.315 371.675,222.049 371.000,221.186 371.000 C 219.931 371.000,220.005 371.293,221.559 372.468 M100.424 387.964 C 101.482 388.809,104.142 391.170,106.334 393.210 C 108.526 395.251,113.286 398.486,116.910 400.400 C 120.535 402.313,124.038 404.761,124.696 405.840 C 126.059 408.073,139.012 415.400,143.439 416.442 C 145.055 416.822,147.550 417.968,148.983 418.988 C 150.416 420.009,154.099 421.953,157.166 423.310 C 160.234 424.667,163.060 426.288,163.446 426.913 C 163.833 427.538,167.153 429.567,170.824 431.421 C 180.543 436.329,188.919 442.870,190.582 446.851 C 191.362 448.717,192.000 452.630,192.000 455.545 C 192.000 459.763,191.481 461.463,189.460 463.865 C 186.149 467.800,175.683 473.002,171.090 472.994 C 164.487 472.984,155.972 471.116,153.056 469.040 C 151.468 467.909,148.668 466.698,146.834 466.349 C 143.002 465.619,133.473 460.004,127.999 455.250 C 125.941 453.462,123.843 452.000,123.337 452.000 C 122.831 452.000,120.429 449.975,118.000 447.500 C 111.931 441.316,108.890 441.362,101.608 447.750 C 98.630 450.363,95.515 453.813,94.687 455.418 L 93.181 458.336 91.990 454.361 C 91.136 451.511,91.089 449.336,91.824 446.674 C 92.477 444.309,92.514 441.791,91.925 439.737 C 91.416 437.964,91.009 423.235,91.020 407.007 L 91.039 377.500 94.770 381.964 C 96.821 384.420,99.366 387.120,100.424 387.964 M201.269 378.693 C 202.242 378.947,203.592 378.930,204.269 378.656 C 204.946 378.382,204.150 378.175,202.500 378.195 C 200.850 378.215,200.296 378.439,201.269 378.693 M301.272 389.000 C 301.272 391.475,301.467 392.488,301.706 391.250 C 301.944 390.012,301.944 387.988,301.706 386.750 C 301.467 385.512,301.272 386.525,301.272 389.000 M460.992 413.719 C 459.909 415.407,459.879 415.404,460.424 413.668 C 460.741 412.661,461.052 411.086,461.116 410.168 C 461.221 408.665,461.277 408.670,461.683 410.219 C 461.931 411.164,461.620 412.739,460.992 413.719 M584.788 416.137 C 584.538 416.886,584.085 416.432,583.731 415.080 C 583.296 413.417,583.426 413.026,584.168 413.768 C 584.750 414.350,585.028 415.415,584.788 416.137 M333.000 442.500 C 333.000 442.775,332.775 443.000,332.500 443.000 C 332.225 443.000,332.000 442.775,332.000 442.500 C 332.000 442.225,332.225 442.000,332.500 442.000 C 332.775 442.000,333.000 442.225,333.000 442.500 M448.000 443.500 C 448.000 443.775,447.775 444.000,447.500 444.000 C 447.225 444.000,447.000 443.775,447.000 443.500 C 447.000 443.225,447.225 443.000,447.500 443.000 C 447.775 443.000,448.000 443.225,448.000 443.500 M343.500 455.000 C 344.495 456.100,345.085 457.000,344.810 457.000 C 344.535 457.000,343.495 456.100,342.500 455.000 C 341.505 453.900,340.915 453.000,341.190 453.000 C 341.465 453.000,342.505 453.900,343.500 455.000 M195.667 455.667 C 195.300 456.033,195.000 455.733,195.000 455.000 C 195.000 454.267,195.300 453.967,195.667 454.333 C 196.033 454.700,196.033 455.300,195.667 455.667 M436.500 456.000 C 435.505 457.100,434.197 457.985,433.595 457.967 C 432.993 457.948,433.562 457.048,434.861 455.967 C 437.915 453.423,438.816 453.441,436.500 456.000 M126.000 455.500 C 126.000 455.775,125.775 456.000,125.500 456.000 C 125.225 456.000,125.000 455.775,125.000 455.500 C 125.000 455.225,125.225 455.000,125.500 455.000 C 125.775 455.000,126.000 455.225,126.000 455.500 M187.000 469.500 C 187.000 469.775,186.775 470.000,186.500 470.000 C 186.225 470.000,186.000 469.775,186.000 469.500 C 186.000 469.225,186.225 469.000,186.500 469.000 C 186.775 469.000,187.000 469.225,187.000 469.500 M796.975 487.530 C 795.526 489.276,797.078 494.000,799.101 494.000 C 799.917 494.000,799.889 493.571,799.005 492.506 C 798.323 491.684,797.980 489.884,798.244 488.506 C 798.803 485.578,798.676 485.481,796.975 487.530 M264.384 496.442 C 262.513 501.318,268.030 504.224,270.183 499.497 C 271.167 497.337,271.124 496.691,269.943 495.944 C 267.772 494.570,265.007 494.818,264.384 496.442 M269.334 497.427 C 270.096 499.414,267.269 501.669,265.825 500.225 C 264.444 498.844,265.478 496.000,267.362 496.000 C 268.145 496.000,269.032 496.642,269.334 497.427 M231.333 501.667 C 231.700 502.033,232.300 502.033,232.667 501.667 C 233.033 501.300,232.733 501.000,232.000 501.000 C 231.267 501.000,230.967 501.300,231.333 501.667 M554.526 506.807 C 554.219 507.115,553.412 506.808,552.733 506.124 C 551.753 505.136,551.868 505.022,553.293 505.564 C 554.279 505.940,554.834 506.499,554.526 506.807 M578.079 507.583 C 578.127 508.748,578.364 508.985,578.683 508.188 C 578.972 507.466,578.936 506.603,578.604 506.271 C 578.272 505.939,578.036 506.529,578.079 507.583 M221.079 514.583 C 221.127 515.748,221.364 515.985,221.683 515.188 C 221.972 514.466,221.936 513.603,221.604 513.271 C 221.272 512.939,221.036 513.529,221.079 514.583 M297.000 514.500 C 297.000 514.775,296.775 515.000,296.500 515.000 C 296.225 515.000,296.000 514.775,296.000 514.500 C 296.000 514.225,296.225 514.000,296.500 514.000 C 296.775 514.000,297.000 514.225,297.000 514.500 M719.750 520.662 C 720.438 520.940,721.563 520.940,722.250 520.662 C 722.938 520.385,722.375 520.158,721.000 520.158 C 719.625 520.158,719.063 520.385,719.750 520.662 M343.500 539.000 C 346.250 540.015,347.825 540.845,347.000 540.845 C 346.175 540.845,343.250 540.015,340.500 539.000 C 337.750 537.985,336.175 537.155,337.000 537.155 C 337.825 537.155,340.750 537.985,343.500 539.000 M410.500 539.000 C 407.751 540.181,406.172 540.181,408.000 539.000 C 408.825 538.467,410.175 538.055,411.000 538.086 C 411.989 538.122,411.819 538.433,410.500 539.000 M132.000 539.500 C 132.000 539.775,131.775 540.000,131.500 540.000 C 131.225 540.000,131.000 539.775,131.000 539.500 C 131.000 539.225,131.225 539.000,131.500 539.000 C 131.775 539.000,132.000 539.225,132.000 539.500 M197.667 540.667 C 197.300 541.033,196.700 541.033,196.333 540.667 C 195.967 540.300,196.267 540.000,197.000 540.000 C 197.733 540.000,198.033 540.300,197.667 540.667 M626.000 540.500 C 626.000 540.775,625.775 541.000,625.500 541.000 C 625.225 541.000,625.000 540.775,625.000 540.500 C 625.000 540.225,625.225 540.000,625.500 540.000 C 625.775 540.000,626.000 540.225,626.000 540.500 M655.667 543.667 C 655.300 544.033,654.700 544.033,654.333 543.667 C 653.967 543.300,654.267 543.000,655.000 543.000 C 655.733 543.000,656.033 543.300,655.667 543.667 M694.656 562.165 C 689.557 564.255,687.343 564.719,685.972 563.985 C 683.546 562.687,673.391 562.720,670.934 564.035 C 669.870 564.605,669.000 565.955,669.000 567.035 C 669.000 569.750,668.403 569.528,664.866 565.500 C 662.028 562.268,661.356 562.000,656.088 562.000 C 652.619 562.000,649.621 562.576,648.441 563.468 C 645.770 565.488,644.473 565.367,646.097 563.250 C 646.835 562.288,646.299 562.513,644.905 563.750 C 641.806 566.502,641.673 566.504,636.301 563.904 C 632.703 562.162,630.959 561.924,625.992 562.501 C 621.062 563.073,619.581 563.709,617.545 566.128 C 615.021 569.128,613.016 574.714,613.006 578.771 C 612.998 581.859,617.507 588.455,620.585 589.857 C 621.965 590.486,625.773 591.000,629.047 591.000 C 633.667 591.000,635.448 590.552,637.000 589.000 C 640.839 585.161,638.948 581.000,633.365 581.000 C 629.112 581.000,625.098 579.420,624.342 577.448 C 623.376 574.932,625.342 573.861,631.289 573.659 L 636.825 573.472 640.569 582.736 C 642.629 587.831,644.580 592.036,644.907 592.080 C 645.233 592.124,649.100 592.319,653.500 592.514 C 662.681 592.920,664.185 592.217,666.589 586.398 C 667.475 584.254,668.888 581.725,669.730 580.777 C 670.777 579.599,671.067 578.017,670.648 575.777 C 670.089 572.789,670.161 572.664,671.458 574.359 C 672.434 575.636,672.710 577.672,672.338 580.859 C 671.652 586.726,674.641 591.296,678.843 590.805 C 682.232 590.409,683.966 586.901,683.985 580.403 C 683.996 576.770,684.570 574.649,685.985 573.018 C 688.839 569.727,690.577 571.676,691.345 579.030 C 692.163 586.855,694.284 591.000,697.469 591.000 C 701.079 591.000,703.000 587.469,703.000 580.833 C 703.000 576.079,703.435 574.637,705.575 572.306 L 708.149 569.500 707.598 576.399 C 706.899 585.156,708.763 589.803,713.342 590.718 C 716.045 591.259,716.176 591.432,714.453 592.181 C 713.153 592.747,714.004 592.880,716.999 592.577 C 720.496 592.225,722.178 591.383,724.544 588.800 L 727.590 585.477 729.045 588.489 C 730.468 591.434,730.663 591.501,738.000 591.536 C 742.125 591.556,746.292 591.412,747.261 591.215 C 750.137 590.632,751.770 586.021,752.527 576.349 C 753.188 567.889,753.088 567.088,751.120 565.120 C 749.954 563.954,748.126 563.000,747.057 563.000 C 744.827 563.000,742.047 566.490,741.900 569.473 C 741.816 571.185,741.676 571.111,741.000 569.000 C 740.323 566.887,740.184 567.168,740.100 570.809 C 739.977 576.132,738.000 575.495,738.000 570.132 C 738.000 568.070,737.369 565.519,736.597 564.464 C 735.431 562.869,734.714 562.714,732.347 563.544 C 730.154 564.313,729.371 565.341,728.936 568.021 L 728.373 571.500 727.033 568.765 C 725.490 565.616,718.741 562.000,714.407 562.000 C 712.778 562.000,710.463 562.688,709.264 563.528 C 707.234 564.950,706.971 564.886,705.481 562.612 C 704.601 561.268,703.345 559.986,702.690 559.764 C 702.036 559.541,698.420 560.622,694.656 562.165 M184.615 562.465 C 182.563 565.597,182.582 567.321,184.717 571.300 C 185.661 573.060,186.980 577.606,187.647 581.403 C 189.100 589.666,191.528 592.858,194.963 591.020 C 197.863 589.468,200.000 584.170,200.000 578.532 C 200.000 576.039,200.450 574.000,201.000 574.000 C 201.550 574.000,202.000 575.151,202.000 576.557 C 202.000 581.304,204.182 587.822,206.500 590.000 C 208.994 592.343,215.354 593.630,219.410 592.612 C 220.802 592.263,223.032 590.799,224.367 589.360 C 226.791 586.746,226.793 586.745,227.926 588.862 C 229.797 592.358,234.622 594.327,238.233 593.069 C 239.919 592.481,242.737 592.000,244.494 592.000 C 247.904 592.000,250.304 590.030,251.827 585.979 C 252.720 583.606,252.809 583.681,253.914 587.733 C 255.714 594.334,260.188 595.708,267.145 591.798 C 271.443 589.383,273.006 585.840,271.112 582.808 C 270.463 581.769,270.204 580.480,270.535 579.943 C 271.657 578.128,273.000 580.098,273.000 583.559 C 273.000 587.149,275.810 591.000,278.429 591.000 C 280.637 591.000,283.000 588.120,283.000 585.429 C 283.000 582.162,284.802 582.348,286.094 585.748 C 288.289 591.521,292.381 593.551,296.104 590.714 C 298.521 588.874,299.360 585.243,299.157 577.500 C 299.025 572.432,299.259 570.914,300.006 572.000 C 300.573 572.825,300.968 575.075,300.885 577.000 C 300.627 582.939,303.559 589.030,307.344 590.416 C 312.417 592.273,317.958 585.366,315.085 580.765 C 313.674 578.505,314.484 573.673,316.564 571.947 C 317.714 570.993,318.000 571.086,318.000 572.413 C 318.000 573.324,318.742 575.203,319.649 576.587 C 320.890 578.481,321.014 579.386,320.149 580.251 C 319.517 580.883,319.000 582.667,319.000 584.215 C 319.000 586.317,319.822 587.531,322.250 589.011 C 327.363 592.128,338.903 591.323,341.214 587.687 C 342.306 585.971,342.170 583.000,341.000 583.000 C 340.450 583.000,340.000 583.648,340.000 584.441 C 340.000 585.234,339.663 586.091,339.250 586.346 C 338.837 586.601,338.419 584.265,338.320 581.155 C 337.779 564.185,337.903 564.655,333.593 563.235 C 328.637 561.603,324.059 562.953,320.599 567.065 L 318.132 569.996 317.816 567.255 C 317.427 563.886,313.735 561.913,307.364 561.672 C 303.592 561.529,302.448 561.941,300.573 564.120 C 298.429 566.612,298.262 566.649,297.151 564.870 C 294.831 561.155,289.513 563.171,287.578 568.500 C 286.913 570.331,286.595 570.182,283.829 566.750 C 280.561 562.696,277.815 562.040,274.330 564.482 C 272.461 565.790,272.071 565.790,270.985 564.482 C 269.585 562.795,258.489 562.405,256.037 563.956 C 255.232 564.465,254.107 566.379,253.537 568.209 L 252.500 571.537 248.500 567.668 C 245.206 564.483,244.897 563.889,246.751 564.307 C 247.990 564.585,248.751 564.405,248.442 563.907 C 248.134 563.408,244.231 563.000,239.770 563.000 C 233.625 563.000,231.214 563.401,229.829 564.655 C 228.127 566.195,227.873 566.195,226.171 564.655 C 223.741 562.456,220.707 562.562,218.572 564.920 C 217.346 566.275,216.785 568.750,216.667 573.321 C 216.575 576.885,216.201 579.618,215.835 579.394 C 215.470 579.170,214.943 579.553,214.664 580.244 C 214.386 580.935,214.122 578.045,214.079 573.821 C 214.022 568.256,213.568 565.710,212.429 564.571 C 210.179 562.322,207.371 562.631,205.317 565.355 C 203.557 567.688,203.530 567.691,202.520 565.665 C 201.867 564.356,199.340 562.972,195.500 561.823 C 187.638 559.470,186.535 559.535,184.615 562.465 M436.500 561.000 C 435.400 561.473,433.016 561.891,431.202 561.930 C 427.465 562.009,423.595 565.476,421.354 570.750 C 420.595 572.538,419.704 574.000,419.375 574.000 C 419.046 574.000,419.045 572.538,419.372 570.750 C 420.040 567.102,419.574 566.119,416.027 563.692 C 408.118 558.279,396.856 567.804,400.837 576.541 C 401.522 578.044,401.568 579.149,400.962 579.523 C 400.433 579.850,400.000 579.339,400.000 578.388 C 400.000 577.436,399.289 575.872,398.420 574.912 C 397.166 573.525,397.074 572.730,397.976 571.045 C 398.600 569.879,398.844 568.085,398.519 567.059 C 397.870 565.014,392.341 562.000,389.238 562.000 C 387.236 562.000,380.091 566.351,378.765 568.377 C 377.448 570.391,377.959 573.678,379.991 576.262 C 381.571 578.270,381.698 578.902,380.606 579.321 C 378.316 580.200,375.120 577.158,374.422 573.434 C 373.611 569.115,368.384 563.000,365.503 563.000 C 362.841 563.000,358.622 567.451,357.176 571.784 C 356.540 573.690,356.483 574.819,357.040 574.475 C 358.524 573.558,358.213 574.646,355.408 580.183 C 353.133 584.672,352.970 585.617,354.082 587.899 C 354.779 589.330,355.270 590.837,355.175 591.250 C 354.848 592.655,358.184 592.005,360.846 590.146 C 364.691 587.459,368.183 586.882,370.441 588.559 C 372.740 590.266,376.166 590.434,377.685 588.915 C 378.465 588.135,379.632 588.275,381.835 589.415 C 385.301 591.207,391.597 591.484,395.464 590.014 C 397.490 589.244,398.871 589.463,401.764 591.014 C 403.803 592.106,406.902 593.000,408.652 593.000 C 413.313 593.000,420.693 589.543,421.507 586.979 C 422.178 584.862,422.260 584.883,424.848 587.849 C 427.494 590.882,432.950 592.984,438.205 592.994 C 440.134 592.998,442.503 591.445,446.458 587.584 C 451.942 582.229,452.022 582.193,453.502 584.307 C 454.326 585.483,455.000 586.941,455.000 587.548 C 455.000 590.100,460.117 593.463,463.852 593.365 C 475.511 593.059,480.455 582.090,469.663 580.472 C 464.176 579.649,462.712 578.732,463.162 576.400 C 463.419 575.063,464.926 574.252,468.510 573.520 C 474.850 572.224,476.000 571.448,476.000 568.464 C 476.000 565.545,472.699 563.169,466.803 561.844 C 460.771 560.489,458.575 561.380,455.345 566.493 C 453.780 568.970,452.260 570.997,451.966 570.998 C 451.672 570.999,448.987 568.525,446.000 565.500 C 440.382 559.811,439.851 559.560,436.500 561.000 M767.813 560.683 C 768.534 560.972,769.397 560.936,769.729 560.604 C 770.061 560.272,769.471 560.036,768.417 560.079 C 767.252 560.127,767.015 560.364,767.813 560.683 M547.568 565.481 L 542.635 569.929 540.812 566.931 C 538.591 563.279,536.812 562.495,534.073 563.961 C 532.474 564.817,530.900 564.706,527.299 563.483 C 519.808 560.940,511.000 563.345,511.000 567.932 C 511.000 568.825,511.760 570.640,512.690 571.967 C 513.772 573.513,514.286 575.897,514.119 578.603 C 513.823 583.420,515.998 588.393,519.135 590.072 C 520.851 590.991,521.745 590.835,523.875 589.249 C 526.180 587.533,526.536 586.484,526.796 580.647 C 526.958 576.991,527.469 574.000,527.931 574.000 C 528.919 574.000,532.000 582.985,532.000 585.866 C 532.000 588.572,534.884 591.263,537.149 590.671 C 538.167 590.405,539.015 590.708,539.034 591.344 C 539.053 591.980,539.870 590.805,540.851 588.734 C 541.831 586.662,542.997 585.312,543.441 585.734 C 543.885 586.155,543.950 585.375,543.585 584.000 C 543.127 582.278,543.726 582.795,545.509 585.661 C 548.427 590.350,553.711 593.044,559.770 592.930 C 562.269 592.883,562.914 592.628,561.726 592.158 C 560.250 591.575,560.472 591.260,563.049 590.288 C 565.715 589.281,565.980 589.319,564.951 590.559 C 564.021 591.680,564.026 592.000,564.976 592.000 C 566.478 592.000,571.999 586.221,572.004 584.644 C 572.006 584.015,572.869 584.913,573.923 586.641 C 574.976 588.368,576.350 590.098,576.976 590.485 C 579.082 591.787,582.948 590.055,583.583 587.526 C 583.920 586.182,584.911 584.501,585.785 583.791 C 587.138 582.692,587.279 582.755,586.731 584.217 C 586.301 585.365,587.094 586.940,589.121 588.967 C 592.531 592.377,592.883 592.466,596.477 590.829 C 599.836 589.298,600.366 586.782,599.762 575.240 C 599.228 565.029,597.954 562.571,593.527 563.212 C 591.722 563.474,591.113 564.595,589.316 570.956 C 589.019 572.007,588.247 571.589,586.547 569.457 C 585.251 567.831,584.368 566.214,584.584 565.864 C 584.801 565.513,584.222 564.613,583.297 563.863 C 582.141 562.926,581.851 562.890,582.367 563.750 C 582.780 564.438,582.690 565.000,582.166 565.000 C 581.642 565.000,580.955 564.325,580.638 563.500 C 579.815 561.356,578.269 561.640,575.455 564.455 C 573.858 566.051,573.000 568.042,573.000 570.150 L 573.000 573.392 570.090 568.803 C 567.063 564.030,564.561 562.701,556.500 561.587 C 552.834 561.080,552.089 561.404,547.568 565.481 M702.500 562.000 C 702.840 562.550,702.390 563.000,701.500 563.000 C 700.610 563.000,700.160 562.550,700.500 562.000 C 700.840 561.450,701.290 561.000,701.500 561.000 C 701.710 561.000,702.160 561.450,702.500 562.000 M63.274 564.250 C 62.133 565.487,60.982 567.400,60.716 568.500 C 60.334 570.078,60.208 569.946,60.116 567.872 C 59.858 562.035,53.048 561.291,49.413 566.704 L 47.262 569.907 44.881 567.362 C 40.004 562.148,35.803 561.948,33.785 566.836 C 32.796 569.231,32.640 569.298,32.235 567.500 C 31.091 562.420,26.147 561.320,23.387 565.532 C 21.579 568.292,20.327 580.183,21.397 584.445 C 22.174 587.541,25.395 591.000,27.500 591.000 C 28.325 591.000,29.940 590.060,31.090 588.910 L 33.180 586.820 35.404 588.910 C 36.628 590.060,38.362 591.000,39.258 591.000 C 41.395 591.000,43.990 587.216,44.039 584.027 C 44.078 581.550,44.105 581.560,45.403 584.500 C 47.304 588.807,49.963 590.713,54.239 590.833 C 58.383 590.950,58.022 591.588,60.380 580.000 C 61.559 574.207,61.775 573.826,62.365 576.500 C 62.729 578.150,62.587 581.016,62.049 582.869 C 60.789 587.209,62.742 591.236,66.953 592.980 C 70.815 594.580,74.216 593.304,79.333 588.334 C 81.691 586.043,83.000 585.310,83.000 586.279 C 83.000 587.108,83.685 588.049,84.523 588.371 C 85.784 588.854,85.855 588.598,84.938 586.884 C 83.688 584.549,84.537 579.596,86.029 580.518 C 86.563 580.848,87.000 582.597,87.000 584.404 C 87.000 587.578,89.442 591.000,91.706 591.000 C 93.446 591.000,95.289 588.114,96.051 584.198 L 96.770 580.500 96.885 584.050 C 96.948 586.003,97.540 588.140,98.200 588.800 C 99.876 590.476,104.508 590.298,106.000 588.500 C 107.623 586.544,112.402 586.574,114.042 588.551 C 115.868 590.751,120.224 589.964,121.602 587.184 L 122.750 584.868 123.390 587.419 C 124.239 590.800,128.350 591.899,131.040 589.464 C 132.118 588.488,133.000 587.058,133.000 586.286 C 133.000 585.514,133.450 585.160,134.000 585.500 C 134.550 585.840,135.015 585.529,135.033 584.809 C 135.054 584.009,135.741 584.307,136.802 585.576 C 139.403 588.686,143.761 591.266,145.058 590.464 C 147.195 589.143,148.797 583.529,149.327 575.500 C 149.673 570.273,149.584 568.886,149.070 571.500 L 148.284 575.500 148.142 570.905 C 147.902 563.152,141.178 560.027,138.190 566.281 L 136.862 569.061 133.854 566.530 C 128.273 561.835,123.000 562.326,123.000 567.541 C 123.000 568.803,122.683 570.661,122.296 571.668 C 121.677 573.278,121.508 573.198,120.896 571.000 L 120.199 568.500 120.100 571.167 C 120.045 572.633,120.563 574.060,121.250 574.338 C 122.027 574.651,121.867 574.872,120.828 574.921 C 119.766 574.971,118.728 573.706,117.985 571.455 C 116.578 567.190,112.321 563.000,109.397 563.000 C 106.459 563.000,102.606 567.134,100.995 572.015 C 99.110 577.728,98.234 577.791,97.456 572.269 C 96.597 566.183,94.598 563.000,91.632 563.000 C 88.420 563.000,86.009 566.006,85.953 570.079 L 85.907 573.500 83.434 568.750 C 82.074 566.138,80.494 564.000,79.922 564.000 C 79.350 564.000,79.129 564.399,79.430 564.887 C 79.731 565.374,78.313 564.924,76.277 563.887 C 71.155 561.275,65.881 561.423,63.274 564.250 M167.695 563.863 C 163.605 566.559,161.833 569.583,162.187 573.259 C 162.396 575.418,163.212 576.813,164.631 577.436 C 166.684 578.338,166.695 578.429,164.932 579.936 C 163.925 580.796,162.811 583.149,162.455 585.165 C 161.883 588.412,162.126 589.036,164.586 590.648 C 166.530 591.922,169.280 592.472,173.767 592.484 C 179.272 592.498,180.437 592.174,182.054 590.179 C 184.906 586.661,185.555 581.387,183.632 577.355 C 182.734 575.472,182.000 572.141,182.000 569.951 C 182.000 566.533,181.541 565.690,178.750 563.989 C 174.695 561.517,171.312 561.478,167.695 563.863 M187.917 562.283 C 187.688 562.439,186.600 563.226,185.500 564.033 C 183.650 565.390,183.603 565.369,184.872 563.750 C 185.627 562.788,186.715 562.000,187.289 562.000 C 187.863 562.000,188.146 562.127,187.917 562.283 M498.210 563.250 C 497.641 563.938,496.016 566.975,494.598 570.000 C 493.180 573.025,492.254 574.375,492.541 573.000 C 492.879 571.378,492.228 572.042,490.688 574.891 L 488.316 579.282 487.684 572.520 C 487.037 565.589,485.496 563.101,481.807 563.032 C 478.454 562.969,477.000 566.939,477.000 576.157 C 477.000 586.077,477.968 589.538,481.014 590.505 C 483.439 591.274,486.991 588.664,487.015 586.095 C 487.024 585.096,487.501 585.431,488.290 586.991 C 489.958 590.288,492.611 590.664,496.083 588.097 C 500.160 585.083,500.839 585.515,497.500 589.000 C 494.013 592.639,495.076 592.955,499.182 589.500 C 502.795 586.460,503.188 586.437,505.595 589.133 C 507.490 591.255,507.487 591.263,505.000 590.628 L 502.500 589.989 504.852 591.193 C 506.753 592.166,507.710 592.107,509.852 590.883 C 512.255 589.510,512.483 588.860,512.320 583.869 C 512.198 580.152,511.306 576.801,509.570 573.535 C 508.156 570.877,507.000 567.901,507.000 566.922 C 507.000 562.940,500.659 560.291,498.210 563.250 M758.241 564.250 C 755.031 567.676,753.869 571.524,755.080 574.712 C 755.820 576.656,755.776 578.049,754.928 579.635 C 752.205 584.723,758.037 593.000,764.345 593.000 C 767.207 593.000,768.486 592.250,771.368 588.883 C 776.021 583.448,776.844 579.633,774.150 575.990 C 772.650 573.961,772.240 572.293,772.639 569.839 C 773.142 566.737,772.872 566.296,769.206 564.236 C 764.158 561.399,760.908 561.403,758.241 564.250 M100.000 566.000 C 100.000 566.733,100.300 567.033,100.667 566.667 C 101.033 566.300,101.033 565.700,100.667 565.333 C 100.300 564.967,100.000 565.267,100.000 566.000 M584.000 565.500 C 584.000 565.775,583.775 566.000,583.500 566.000 C 583.225 566.000,583.000 565.775,583.000 565.500 C 583.000 565.225,583.225 565.000,583.500 565.000 C 583.775 565.000,584.000 565.225,584.000 565.500 M28.790 577.009 C 28.592 583.368,28.102 586.470,27.250 586.752 C 26.306 587.065,26.000 584.738,26.000 577.250 C 26.000 571.796,26.308 567.026,26.683 566.650 C 28.366 564.968,29.058 568.372,28.790 577.009 M55.785 576.831 C 55.942 582.424,55.704 587.000,55.256 587.000 C 54.808 587.000,51.530 584.057,47.971 580.461 L 41.500 573.922 41.000 580.211 C 40.626 584.912,40.121 586.500,39.000 586.500 C 37.789 586.500,37.445 584.623,37.214 576.750 C 36.861 564.723,37.511 564.477,45.779 573.500 C 49.055 577.075,52.051 580.000,52.438 580.000 C 52.825 580.000,53.073 577.413,52.989 574.250 C 52.775 566.212,52.843 565.781,54.250 566.248 C 55.115 566.535,55.588 569.797,55.785 576.831 M77.392 568.644 C 80.415 570.846,82.419 576.062,81.460 579.234 C 81.083 580.480,79.617 582.737,78.201 584.250 C 76.091 586.503,74.767 587.000,70.872 587.000 C 68.257 587.000,65.866 586.591,65.557 586.092 C 65.248 585.593,64.884 581.616,64.748 577.255 C 64.443 567.516,65.589 565.547,71.130 566.291 C 73.173 566.565,75.990 567.624,77.392 568.644 M92.500 576.500 C 92.500 583.478,92.137 586.454,91.250 586.750 C 90.302 587.066,90.000 584.589,90.000 576.500 C 90.000 568.411,90.302 565.934,91.250 566.250 C 92.137 566.546,92.500 569.522,92.500 576.500 M144.915 577.184 C 144.817 582.058,144.300 586.314,143.767 586.644 C 143.235 586.973,139.919 584.388,136.399 580.900 L 130.000 574.558 130.000 580.220 C 130.000 585.622,128.743 588.221,127.030 586.363 C 126.592 585.888,126.519 581.300,126.867 576.166 L 127.500 566.832 134.000 573.579 L 140.500 580.326 140.775 574.413 C 141.142 566.544,141.574 565.402,143.559 567.049 C 144.756 568.043,145.055 570.277,144.915 577.184 M177.066 567.035 C 180.195 568.710,179.296 570.000,175.000 570.000 C 169.888 570.000,169.768 571.853,174.669 575.082 C 179.347 578.165,180.460 580.031,179.620 583.379 C 178.407 588.212,171.488 589.345,167.506 585.363 C 165.331 583.188,167.018 581.404,169.827 582.907 C 172.653 584.420,175.681 584.274,176.326 582.594 C 176.902 581.092,174.400 578.382,170.760 576.568 C 169.535 575.957,168.106 574.243,167.584 572.759 C 165.828 567.766,171.750 564.190,177.066 567.035 M199.264 566.598 C 200.232 567.565,198.906 570.000,197.412 570.000 C 195.754 570.000,195.099 572.572,194.757 580.421 C 194.599 584.073,194.021 586.500,193.250 586.754 C 192.324 587.060,192.000 585.208,192.000 579.606 C 192.000 572.632,191.805 571.918,189.483 570.397 C 187.509 569.104,187.212 568.450,188.105 567.374 C 189.236 566.011,198.064 565.398,199.264 566.598 M211.000 573.477 C 211.000 576.975,211.278 580.561,211.618 581.446 C 212.597 583.999,215.689 585.237,218.000 584.000 C 219.714 583.083,220.002 581.897,220.015 575.715 C 220.032 567.906,221.110 564.710,223.068 566.668 C 223.816 567.416,224.089 570.694,223.848 576.008 C 223.524 583.151,223.176 584.439,221.127 586.098 C 218.061 588.581,213.922 588.513,210.635 585.927 C 208.168 583.987,208.000 583.327,208.000 575.594 C 208.000 571.051,208.288 567.046,208.639 566.694 C 210.167 565.166,211.000 567.559,211.000 573.477 M246.218 569.917 C 250.175 574.347,250.097 580.056,246.024 584.130 C 243.361 586.792,242.492 587.074,237.774 586.803 L 232.500 586.500 232.210 577.651 C 231.853 566.797,232.574 565.579,238.928 566.295 C 242.340 566.680,244.111 567.560,246.218 569.917 M268.500 568.000 C 268.500 569.011,267.279 569.601,264.750 569.810 C 261.812 570.054,261.000 570.541,261.000 572.060 C 261.000 573.506,261.700 574.004,263.750 574.015 C 265.262 574.024,267.175 574.474,268.000 575.015 C 269.333 575.891,269.333 576.109,268.000 576.985 C 267.175 577.526,265.289 577.976,263.809 577.985 C 260.630 578.003,259.994 578.790,260.970 581.500 C 261.458 582.854,262.882 583.662,265.378 584.000 C 270.971 584.758,270.193 586.461,264.095 586.808 C 260.447 587.015,258.420 586.690,257.860 585.808 C 257.404 585.088,257.024 581.045,257.015 576.821 C 256.997 567.491,258.204 565.748,264.373 566.199 C 267.241 566.408,268.500 566.958,268.500 568.000 M291.275 580.000 C 291.683 580.000,291.727 577.532,291.373 574.516 C 290.734 569.081,292.042 565.290,294.113 566.570 C 295.420 567.377,295.246 587.000,293.933 587.000 C 293.346 587.000,290.296 584.300,287.156 581.000 C 284.016 577.700,281.121 575.000,280.723 575.000 C 280.326 575.000,280.000 577.700,280.000 581.000 C 280.000 585.667,279.667 587.000,278.500 587.000 C 277.258 587.000,277.004 585.150,277.024 576.250 L 277.048 565.500 283.791 572.750 C 287.499 576.737,290.867 580.000,291.275 580.000 M314.585 567.137 C 314.971 567.763,314.340 569.000,313.181 569.887 C 311.426 571.231,311.027 572.752,310.787 579.000 C 310.562 584.872,310.174 586.500,309.000 586.500 C 307.820 586.500,307.438 584.838,307.207 578.709 C 306.935 571.479,306.737 570.851,304.457 569.984 C 301.798 568.973,301.252 567.469,303.250 566.662 C 305.696 565.675,313.894 566.019,314.585 567.137 M333.418 566.607 C 336.660 567.851,335.128 570.000,331.000 570.000 C 325.775 570.000,325.774 571.943,330.997 574.878 C 335.434 577.372,336.890 580.752,335.161 584.546 C 333.777 587.584,329.965 588.572,326.336 586.832 C 323.106 585.284,321.500 581.157,324.649 582.496 C 328.066 583.949,331.757 584.202,332.480 583.033 C 333.349 581.627,330.501 578.310,326.767 576.379 C 325.261 575.601,323.730 573.771,323.364 572.313 C 322.257 567.904,328.123 564.575,333.418 566.607 M393.800 567.200 C 395.791 569.191,395.174 570.000,391.667 570.000 C 389.833 570.000,388.028 570.305,387.655 570.679 C 387.282 571.052,389.216 573.427,391.953 575.956 C 397.370 580.963,397.798 583.627,393.653 586.531 C 389.562 589.396,383.000 587.485,383.000 583.429 C 383.000 581.789,384.584 581.517,385.500 583.000 C 386.414 584.479,391.704 584.214,392.300 582.659 C 393.025 580.771,392.023 579.517,388.000 577.279 C 386.075 576.209,384.059 574.086,383.520 572.562 C 382.686 570.202,382.887 569.510,384.881 567.895 C 387.527 565.752,392.003 565.403,393.800 567.200 M414.800 567.200 C 416.805 569.205,416.168 570.000,412.559 570.000 C 410.666 570.000,408.871 570.400,408.569 570.888 C 408.267 571.376,410.041 573.431,412.510 575.455 C 417.392 579.455,418.445 583.413,415.429 586.429 C 412.269 589.588,404.000 587.357,404.000 583.345 C 404.000 581.724,405.204 581.604,406.678 583.078 C 407.271 583.671,409.049 584.009,410.628 583.828 C 415.035 583.325,414.448 580.008,409.500 577.449 C 406.246 575.766,405.441 574.773,405.182 572.125 C 405.007 570.334,405.399 568.224,406.054 567.435 C 407.500 565.693,413.141 565.541,414.800 567.200 M444.600 569.400 C 449.077 573.877,449.294 579.025,445.213 583.914 C 442.905 586.679,441.572 587.334,437.463 587.725 C 431.648 588.278,428.299 586.257,425.598 580.565 C 424.138 577.488,424.108 576.677,425.350 573.705 C 427.443 568.695,431.425 566.000,436.735 566.000 C 440.480 566.000,441.749 566.549,444.600 569.400 M471.869 567.342 C 473.478 569.281,472.251 570.000,467.333 570.000 C 460.088 570.000,456.579 576.099,460.557 581.777 C 461.804 583.558,463.084 584.000,466.998 584.000 C 472.478 584.000,474.148 585.315,470.884 587.062 C 467.585 588.827,461.100 587.554,458.097 584.552 C 455.985 582.440,455.500 581.009,455.500 576.895 C 455.500 572.445,455.893 571.485,458.766 568.918 C 461.316 566.639,462.987 566.000,466.393 566.000 C 468.822 566.000,471.249 566.595,471.869 567.342 M483.790 577.009 C 483.592 583.368,483.102 586.470,482.250 586.752 C 481.306 587.065,481.000 584.738,481.000 577.250 C 481.000 571.796,481.308 567.026,481.683 566.650 C 483.366 564.968,484.058 568.372,483.790 577.009 M526.418 566.607 C 528.665 567.469,528.381 568.505,525.543 569.799 C 523.285 570.827,523.062 571.545,522.793 578.629 C 522.601 583.688,522.070 586.482,521.250 586.753 C 520.330 587.058,520.000 585.320,520.000 580.165 C 520.000 571.868,519.429 570.000,516.893 570.000 C 515.053 570.000,514.321 568.012,515.667 566.667 C 516.500 565.833,524.289 565.790,526.418 566.607 M538.000 577.059 C 538.000 585.091,537.721 587.000,536.545 587.000 C 535.667 587.000,534.823 585.574,534.415 583.401 C 533.687 579.516,534.375 568.820,535.468 567.052 C 537.118 564.382,538.000 567.870,538.000 577.059 M564.027 567.704 C 569.744 571.644,571.012 576.097,568.062 581.879 C 565.692 586.524,560.605 588.711,554.734 587.610 C 545.986 585.969,543.421 575.157,550.290 568.882 C 554.010 565.485,560.055 564.966,564.027 567.704 M593.000 574.807 C 593.000 567.655,593.723 565.525,595.617 567.097 C 597.420 568.594,597.588 585.518,595.810 586.617 C 595.068 587.076,592.075 584.636,587.857 580.132 L 581.093 572.912 580.797 579.706 C 580.568 584.947,580.157 586.500,579.000 586.500 C 577.801 586.500,577.442 584.713,577.209 577.579 C 577.048 572.673,577.179 567.977,577.498 567.144 C 577.927 566.026,580.034 567.571,585.540 573.040 L 593.000 580.450 593.000 574.807 M633.418 566.607 C 634.288 566.941,635.000 567.841,635.000 568.607 C 635.000 569.625,633.551 570.000,629.615 570.000 C 624.995 570.000,624.001 570.350,622.615 572.465 C 618.661 578.500,622.173 584.000,629.980 584.000 C 635.346 584.000,637.166 585.305,634.094 586.950 C 631.509 588.333,626.718 588.284,623.553 586.842 C 620.599 585.496,616.984 579.867,617.035 576.693 C 617.149 569.644,626.435 563.927,633.418 566.607 M660.033 567.517 C 663.265 569.188,666.002 573.633,665.996 577.200 C 665.991 580.533,662.411 585.893,659.434 587.025 C 650.754 590.325,643.000 585.357,643.000 576.496 C 643.000 573.626,643.760 572.040,646.400 569.400 C 650.260 565.540,654.956 564.891,660.033 567.517 M683.418 566.607 C 685.674 567.473,685.378 568.507,682.500 569.818 C 680.136 570.895,680.000 571.393,680.000 578.979 C 680.000 585.442,679.709 587.000,678.500 587.000 C 677.311 587.000,677.000 585.565,677.000 580.082 C 677.000 572.338,676.409 570.000,674.452 570.000 C 672.777 570.000,671.684 568.320,672.500 567.000 C 673.174 565.909,680.876 565.632,683.418 566.607 M703.593 567.151 C 704.004 567.815,703.183 569.120,701.652 570.235 C 699.195 572.025,699.000 572.711,699.000 579.583 C 699.000 585.509,698.699 587.000,697.500 587.000 C 696.301 587.000,696.000 585.504,696.000 579.539 C 696.000 573.240,695.672 571.772,693.894 570.116 C 692.735 569.036,692.087 567.669,692.453 567.077 C 693.345 565.633,702.694 565.696,703.593 567.151 M720.050 567.526 C 722.557 568.822,723.000 569.641,723.000 572.979 C 723.000 575.139,723.514 578.034,724.142 579.412 C 725.065 581.438,724.965 582.405,723.619 584.459 C 722.256 586.539,721.161 587.000,717.584 587.000 C 712.284 587.000,712.000 586.447,712.000 576.118 C 712.000 566.004,713.667 564.225,720.050 567.526 M748.393 567.582 C 749.464 570.373,749.012 581.418,747.723 583.966 C 746.286 586.806,741.350 588.556,737.502 587.590 C 733.782 586.656,731.675 581.170,732.208 573.803 C 732.437 570.635,732.904 567.763,733.246 567.421 C 734.905 565.762,736.000 568.770,736.000 574.988 C 736.000 583.810,738.180 586.580,743.066 583.965 C 744.690 583.095,745.000 581.828,745.000 576.047 C 745.000 569.019,745.601 566.000,747.000 566.000 C 747.432 566.000,748.059 566.712,748.393 567.582 M768.094 567.050 C 770.847 568.524,769.520 570.000,765.441 570.000 C 761.720 570.000,761.056 571.166,763.611 573.211 C 771.341 579.395,772.605 582.395,769.000 586.000 C 766.338 588.662,761.611 588.572,759.039 585.811 C 757.918 584.608,757.000 583.258,757.000 582.811 C 757.000 581.636,759.415 581.815,760.685 583.085 C 762.464 584.864,766.463 583.757,766.801 581.392 C 767.022 579.840,766.287 578.947,764.011 578.005 C 760.607 576.595,758.000 573.491,758.000 570.849 C 758.000 566.801,763.653 564.674,768.094 567.050 M112.574 571.340 C 112.932 572.528,114.538 576.374,116.143 579.886 C 119.351 586.906,119.213 588.488,115.682 585.171 C 112.549 582.228,105.538 582.126,104.000 585.000 C 103.030 586.813,100.000 587.865,100.000 586.389 C 100.000 586.053,102.036 581.507,104.525 576.287 C 108.297 568.376,109.289 566.995,110.486 567.989 C 111.276 568.644,112.216 570.152,112.574 571.340 M366.825 568.290 C 367.789 569.451,375.000 585.592,375.000 586.589 C 375.000 587.845,372.297 586.706,371.232 585.000 C 370.336 583.565,368.900 583.000,366.147 583.000 C 363.580 583.000,361.711 583.662,360.500 585.000 C 358.915 586.751,356.000 587.770,356.000 586.573 C 356.000 586.338,357.515 582.851,359.367 578.823 C 361.219 574.795,363.049 570.487,363.435 569.250 C 364.227 566.703,365.265 566.409,366.825 568.290 M503.634 570.750 C 504.476 572.813,506.253 576.835,507.583 579.688 C 508.912 582.542,510.000 585.354,510.000 585.938 C 510.000 587.769,507.121 587.094,506.000 585.000 C 505.217 583.537,503.906 583.000,501.120 583.000 C 498.580 583.000,496.707 583.667,495.500 585.000 C 493.893 586.776,491.000 587.765,491.000 586.538 C 491.000 586.284,492.575 582.758,494.500 578.703 C 496.425 574.647,498.000 570.895,498.000 570.364 C 498.000 569.172,500.099 567.000,501.251 567.000 C 501.719 567.000,502.791 568.688,503.634 570.750 M68.453 572.330 C 68.132 573.612,68.011 576.649,68.184 579.080 C 68.466 583.025,68.785 583.533,71.157 583.807 C 75.181 584.273,78.313 580.480,77.601 576.003 C 76.983 572.110,74.778 570.000,71.328 570.000 C 69.764 570.000,68.853 570.739,68.453 572.330 M235.630 572.250 C 234.759 575.499,234.893 581.282,235.874 582.830 C 237.213 584.942,242.089 583.786,244.281 580.837 C 247.660 576.292,244.620 570.000,239.045 570.000 C 236.974 570.000,236.074 570.593,235.630 572.250 M430.655 571.829 C 428.418 574.300,428.517 580.253,430.829 582.345 C 431.905 583.319,434.346 584.000,436.761 584.000 C 440.148 584.000,441.224 583.494,442.932 581.096 C 445.575 577.384,445.537 576.791,442.411 573.077 C 440.366 570.647,439.033 570.000,436.066 570.000 C 433.697 570.000,431.699 570.675,430.655 571.829 M552.128 571.345 C 549.997 573.914,549.708 578.625,551.514 581.381 C 552.926 583.536,553.994 584.000,557.542 584.000 C 561.010 584.000,562.261 583.484,563.927 581.365 C 565.067 579.916,566.000 577.952,566.000 577.000 C 566.000 576.048,565.067 574.084,563.927 572.635 C 562.262 570.517,561.010 570.000,557.550 570.000 C 555.163 570.000,552.747 570.599,552.128 571.345 M648.571 571.571 C 646.382 573.761,646.537 580.271,648.829 582.345 C 653.285 586.378,662.000 582.749,662.000 576.860 C 662.000 571.301,652.559 567.583,648.571 571.571 M716.000 572.000 C 716.000 574.274,718.508 574.725,719.324 572.598 C 719.952 570.962,719.214 570.000,717.333 570.000 C 716.600 570.000,716.000 570.900,716.000 572.000 M229.667 572.667 C 229.300 573.033,229.000 572.733,229.000 572.000 C 229.000 571.267,229.300 570.967,229.667 571.333 C 230.033 571.700,230.033 572.300,229.667 572.667 M108.659 574.142 C 107.622 578.013,107.895 579.000,110.000 579.000 C 112.375 579.000,112.361 579.088,110.645 575.007 C 109.331 571.881,109.271 571.855,108.659 574.142 M241.000 573.441 C 241.000 573.684,240.550 574.160,240.000 574.500 C 239.450 574.840,239.000 574.641,239.000 574.059 C 239.000 573.477,239.450 573.000,240.000 573.000 C 240.550 573.000,241.000 573.198,241.000 573.441 M304.716 580.750 C 304.487 582.263,304.300 581.025,304.300 578.000 C 304.300 574.975,304.487 573.737,304.716 575.250 C 304.945 576.763,304.945 579.237,304.716 580.750 M364.252 575.345 C 362.999 578.095,363.473 579.000,366.167 579.000 C 368.308 579.000,368.393 578.335,366.650 575.195 L 365.371 572.890 364.252 575.345 M72.000 574.500 C 72.000 574.775,71.775 575.000,71.500 575.000 C 71.225 575.000,71.000 574.775,71.000 574.500 C 71.000 574.225,71.225 574.000,71.500 574.000 C 71.775 574.000,72.000 574.225,72.000 574.500 M438.912 575.394 C 440.689 577.535,437.538 580.358,434.931 578.963 C 433.000 577.930,432.410 575.923,433.667 574.667 C 434.803 573.530,437.698 573.932,438.912 575.394 M499.607 575.582 C 498.647 578.084,498.886 579.000,500.500 579.000 C 501.433 579.000,502.000 578.056,502.000 576.500 C 502.000 573.707,500.541 573.147,499.607 575.582 M558.878 575.904 C 560.469 576.911,559.540 579.000,557.500 579.000 C 555.784 579.000,554.674 577.336,555.500 576.000 C 556.252 574.782,557.071 574.759,558.878 575.904 M656.000 576.059 C 656.000 576.641,656.450 576.840,657.000 576.500 C 658.575 575.527,658.166 577.617,656.513 578.989 C 654.521 580.643,652.000 579.549,652.000 577.031 C 652.000 575.667,652.656 575.000,654.000 575.000 C 655.100 575.000,656.000 575.477,656.000 576.059 M515.662 579.250 C 515.385 579.938,515.158 579.375,515.158 578.000 C 515.158 576.625,515.385 576.063,515.662 576.750 C 515.940 577.438,515.940 578.563,515.662 579.250 M716.000 581.000 C 716.000 584.289,717.918 585.008,720.000 582.500 C 720.993 581.303,720.993 580.697,720.000 579.500 C 717.918 576.992,716.000 577.711,716.000 581.000 M490.286 581.016 C 489.656 583.424,488.000 584.687,488.000 582.759 C 488.000 581.644,489.833 579.000,490.606 579.000 C 490.720 579.000,490.576 579.907,490.286 581.016 M741.342 580.325 C 741.704 579.963,742.000 580.225,742.000 580.907 C 742.000 582.614,738.782 581.852,738.170 580.000 C 737.765 578.772,737.948 578.725,739.179 579.741 C 740.007 580.424,740.980 580.687,741.342 580.325 M403.817 588.090 C 405.843 589.809,407.050 591.052,406.500 590.853 C 399.561 588.337,398.003 587.435,398.474 586.208 C 398.763 585.454,399.061 583.861,399.136 582.668 C 399.271 580.514,399.275 580.515,399.703 582.733 C 399.941 583.961,401.792 586.372,403.817 588.090 M209.483 589.850 C 208.840 590.493,206.054 587.970,204.783 585.594 C 203.972 584.080,204.514 584.315,206.796 586.469 C 208.513 588.090,209.722 589.611,209.483 589.850 M166.783 588.500 C 168.266 589.875,169.022 591.000,168.462 591.000 C 166.978 591.000,163.000 588.046,163.000 586.943 C 163.000 585.451,163.890 585.817,166.783 588.500 M248.000 588.500 C 247.315 589.325,245.573 589.980,244.128 589.955 L 241.500 589.910 244.500 588.536 C 248.506 586.702,249.501 586.691,248.000 588.500 M734.500 589.000 C 735.495 590.100,735.986 591.000,735.589 591.000 C 734.162 591.000,731.000 588.909,731.000 587.965 C 731.000 586.396,732.561 586.857,734.500 589.000 M181.000 588.441 C 181.000 588.684,180.480 589.203,179.845 589.595 C 179.130 590.038,178.962 589.870,179.405 589.155 C 180.117 588.002,181.000 587.607,181.000 588.441 M291.500 589.000 C 291.840 589.550,291.641 590.000,291.059 590.000 C 290.477 590.000,290.000 589.550,290.000 589.000 C 290.000 588.450,290.198 588.000,290.441 588.000 C 290.684 588.000,291.160 588.450,291.500 589.000 M648.729 590.605 C 648.029 591.304,645.000 589.886,645.000 588.858 C 645.000 588.347,645.938 588.432,647.086 589.046 C 648.233 589.660,648.972 590.361,648.729 590.605 M70.667 589.667 C 70.300 590.033,69.700 590.033,69.333 589.667 C 68.967 589.300,69.267 589.000,70.000 589.000 C 70.733 589.000,71.033 589.300,70.667 589.667 M662.000 589.500 C 662.000 589.775,661.775 590.000,661.500 590.000 C 661.225 590.000,661.000 589.775,661.000 589.500 C 661.000 589.225,661.225 589.000,661.500 589.000 C 661.775 589.000,662.000 589.225,662.000 589.500 M240.000 590.500 C 240.000 590.775,239.775 591.000,239.500 591.000 C 239.225 591.000,239.000 590.775,239.000 590.500 C 239.000 590.225,239.225 590.000,239.500 590.000 C 239.775 590.000,240.000 590.225,240.000 590.500 M263.000 591.000 C 263.000 591.550,261.902 592.000,260.559 592.000 C 259.216 592.000,257.840 591.550,257.500 591.000 C 257.139 590.417,258.156 590.000,259.941 590.000 C 261.623 590.000,263.000 590.450,263.000 591.000 M410.667 591.667 C 410.300 592.033,409.700 592.033,409.333 591.667 C 408.967 591.300,409.267 591.000,410.000 591.000 C 410.733 591.000,411.033 591.300,410.667 591.667 M158.358 694.207 C 155.047 697.704,153.212 700.777,151.948 704.942 C 151.373 706.838,151.150 705.922,151.086 701.405 C 150.985 694.215,149.255 692.000,143.744 692.000 C 141.047 692.000,139.626 692.660,138.073 694.635 C 136.316 696.868,136.000 698.676,136.000 706.486 C 136.000 717.739,134.754 722.000,131.461 722.000 C 130.172 722.000,128.754 721.438,128.309 720.750 C 127.864 720.063,127.251 714.494,126.947 708.375 C 126.558 700.552,125.911 696.514,124.770 694.771 L 123.146 692.293 98.130 692.110 L 73.114 691.927 70.870 694.962 C 68.660 697.952,68.595 697.969,66.563 696.124 C 62.728 692.640,60.159 692.000,50.020 692.000 C 40.618 692.000,39.737 692.172,37.455 694.455 C 35.036 696.873,35.000 697.168,35.000 714.320 C 35.000 730.419,35.156 731.929,37.073 734.365 C 39.104 736.948,39.381 737.000,51.038 737.000 C 62.866 737.000,62.949 736.984,66.400 733.953 C 68.309 732.278,70.638 728.896,71.576 726.439 C 73.106 722.433,73.134 721.507,71.844 717.466 C 71.053 714.988,70.589 711.394,70.813 709.480 L 71.219 706.000 77.002 706.000 C 81.354 706.000,82.936 706.392,83.393 707.582 C 83.727 708.452,84.000 714.720,84.000 721.510 C 84.000 731.401,84.313 734.170,85.571 735.429 C 87.442 737.300,95.049 737.551,96.800 735.800 C 97.597 735.003,98.000 730.655,98.000 722.847 C 98.000 707.709,98.720 706.000,105.101 706.000 C 107.731 706.000,110.186 706.492,110.557 707.093 C 110.929 707.694,111.472 712.022,111.765 716.710 C 112.237 724.285,112.641 725.683,115.398 729.274 C 119.777 734.978,123.084 737.142,128.323 737.733 C 136.200 738.621,139.762 737.366,145.065 731.834 L 149.887 726.805 151.542 732.653 C 154.669 743.699,160.000 749.000,167.983 749.000 C 171.301 749.000,172.221 748.579,172.902 746.750 C 173.363 745.513,173.608 743.825,173.446 743.000 C 173.285 742.175,173.119 740.767,173.077 739.871 C 173.034 738.976,171.678 737.695,170.061 737.025 C 162.100 733.728,161.874 706.602,169.775 702.761 C 172.650 701.364,173.965 697.823,173.030 694.000 C 172.482 691.763,171.843 691.469,166.947 691.207 C 161.885 690.936,161.242 691.161,158.358 694.207 M294.054 691.946 C 293.258 692.449,292.358 695.030,292.054 697.680 C 291.562 701.964,291.209 702.534,288.886 702.803 C 286.651 703.063,286.178 702.641,285.630 699.899 C 284.690 695.199,283.248 694.000,278.533 694.000 C 273.664 694.000,271.000 696.221,271.000 700.279 C 271.000 703.671,268.565 705.040,264.956 703.677 C 263.139 702.992,261.989 701.694,261.637 699.934 C 260.801 695.756,258.389 694.000,253.485 694.000 C 248.799 694.000,246.000 696.400,246.000 700.418 C 246.000 702.478,241.359 708.000,239.627 708.000 C 239.078 708.000,237.581 707.016,236.301 705.813 C 232.842 702.564,223.698 702.093,218.229 704.883 C 213.098 707.501,209.257 712.435,208.828 716.960 C 208.505 720.371,208.428 720.424,203.500 720.622 C 200.750 720.732,196.878 721.129,194.895 721.504 C 191.748 722.098,191.018 721.839,189.145 719.458 C 186.441 716.019,186.411 712.589,189.063 709.937 C 190.930 708.070,191.869 707.938,198.925 708.554 C 206.342 709.201,206.803 709.120,208.361 706.895 C 211.990 701.713,209.501 695.649,202.685 693.067 C 198.714 691.562,189.553 691.742,185.578 693.403 C 166.127 701.530,166.941 729.497,186.836 736.604 C 194.262 739.256,205.004 737.333,208.872 732.658 C 210.712 730.436,212.307 730.570,214.595 733.138 C 220.098 739.314,231.506 739.582,237.847 733.683 C 240.720 731.012,244.000 724.804,244.000 722.040 C 244.000 717.759,245.769 720.241,246.244 725.188 C 246.664 729.554,247.315 730.901,250.357 733.688 C 253.525 736.591,254.644 737.000,259.429 737.000 C 263.935 737.000,265.158 736.613,266.443 734.777 C 268.864 731.322,268.433 726.486,265.500 724.179 C 262.263 721.632,262.332 719.626,265.709 718.087 C 268.038 717.025,268.600 717.100,269.709 718.617 C 270.419 719.588,271.000 722.119,271.000 724.241 C 271.000 729.257,273.298 733.585,276.967 735.483 C 280.217 737.163,289.544 737.547,290.476 736.038 C 290.857 735.422,291.981 735.422,293.601 736.038 C 294.992 736.567,300.633 737.000,306.137 737.000 L 316.143 737.000 320.715 732.250 L 325.287 727.500 330.060 732.309 L 334.832 737.118 349.166 736.883 C 357.050 736.754,365.603 737.008,368.174 737.449 C 374.785 738.583,379.261 737.459,384.043 733.464 C 388.180 730.007,388.211 730.000,398.431 730.000 L 408.672 730.000 413.485 733.750 C 418.036 737.296,418.693 737.500,425.546 737.500 C 432.227 737.500,433.111 737.246,436.839 734.250 C 439.063 732.462,441.385 731.000,442.000 731.000 C 442.615 731.000,444.921 732.449,447.125 734.221 C 450.569 736.988,452.076 737.494,457.817 737.807 C 464.228 738.156,467.534 737.412,471.191 734.794 C 472.558 733.816,473.245 733.912,474.770 735.292 C 477.127 737.424,482.837 737.503,485.777 735.443 C 487.628 734.147,488.003 732.933,488.015 728.193 C 488.033 721.697,489.349 718.509,490.985 721.000 C 491.526 721.825,491.976 725.018,491.985 728.095 C 491.996 732.232,492.477 734.121,493.829 735.345 C 495.965 737.279,503.029 737.571,504.800 735.800 C 505.512 735.088,506.000 731.658,506.000 727.359 C 506.000 720.252,507.282 717.256,509.096 720.122 C 509.577 720.880,509.976 724.243,509.985 727.595 C 510.003 734.811,511.712 737.000,517.329 737.000 C 522.264 737.000,525.000 734.191,525.000 729.125 C 525.000 722.011,525.958 719.507,529.236 718.056 C 531.989 716.837,532.444 716.887,533.653 718.540 C 534.394 719.553,535.002 722.209,535.004 724.441 C 535.008 729.341,538.034 734.682,541.566 736.025 C 545.916 737.679,552.786 737.214,554.875 735.125 C 555.906 734.094,556.956 732.631,557.208 731.875 C 557.539 730.882,558.690 731.399,561.352 733.736 C 565.871 737.703,568.248 738.345,576.493 737.820 C 581.399 737.507,583.499 736.880,585.299 735.189 L 587.662 732.969 589.486 734.984 C 591.491 737.200,596.833 737.695,600.066 735.965 C 601.620 735.133,602.000 733.844,602.000 729.399 C 602.000 723.639,603.416 719.521,605.050 720.531 C 605.573 720.854,606.000 723.506,606.000 726.424 C 606.000 735.646,610.418 738.748,619.743 736.074 C 621.725 735.505,623.194 735.505,623.546 736.074 C 623.860 736.583,628.742 737.000,634.393 737.000 L 644.667 737.000 649.000 733.000 C 651.383 730.800,653.458 729.000,653.611 729.000 C 653.764 729.000,655.601 730.606,657.694 732.569 C 659.787 734.531,662.542 736.556,663.815 737.069 C 667.619 738.599,677.596 738.161,681.516 736.291 C 684.413 734.909,685.472 734.814,687.037 735.791 C 689.965 737.620,696.418 737.300,698.288 735.234 C 699.334 734.078,700.013 731.055,700.251 726.484 L 700.615 719.500 704.456 719.181 C 708.553 718.840,709.958 719.967,709.985 723.615 C 709.993 724.778,710.947 726.934,712.105 728.406 C 714.194 731.062,714.306 734.107,712.517 739.637 C 712.007 741.213,712.614 742.656,714.831 745.137 C 717.758 748.412,718.040 748.500,725.668 748.500 C 732.688 748.500,733.876 748.213,737.120 745.730 L 740.741 742.960 741.992 745.980 C 743.120 748.704,743.682 749.000,747.717 749.000 C 756.233 749.000,761.588 742.399,764.605 728.179 C 766.124 721.023,766.198 718.994,765.137 713.679 C 763.004 702.995,761.128 698.531,757.130 694.627 C 753.534 691.116,752.965 690.904,747.899 691.193 L 742.500 691.500 742.500 696.470 C 742.500 700.764,742.838 701.609,744.983 702.679 C 748.676 704.520,749.724 706.472,751.074 714.028 C 753.039 725.023,749.296 738.202,744.709 736.442 C 743.203 735.864,743.000 734.019,743.000 720.916 C 743.000 702.651,743.243 702.965,729.355 703.348 C 721.127 703.574,719.854 703.874,716.607 706.351 C 714.623 707.864,713.000 708.622,713.000 708.036 C 713.000 707.450,711.567 706.099,709.816 705.034 C 705.416 702.359,689.111 702.685,685.988 705.511 C 684.017 707.295,683.852 707.285,680.094 705.173 C 675.570 702.631,667.648 702.268,662.718 704.377 C 660.948 705.134,658.189 707.148,656.586 708.853 L 653.672 711.952 649.478 708.087 C 647.172 705.961,643.758 703.895,641.892 703.495 C 637.100 702.469,636.000 701.272,636.000 697.078 C 636.000 692.138,634.565 691.000,628.335 691.000 C 621.825 691.000,620.867 692.387,620.200 702.792 L 619.731 710.096 617.615 708.173 C 613.514 704.445,610.569 703.575,601.500 703.413 C 591.973 703.243,589.320 703.961,588.189 707.018 C 587.535 708.786,587.213 708.718,583.095 705.952 C 577.158 701.965,569.080 701.778,563.595 705.500 C 561.569 706.875,559.645 708.000,559.320 708.000 C 558.995 708.000,557.687 706.875,556.412 705.500 C 555.138 704.125,553.210 703.000,552.127 703.000 C 550.716 703.000,549.962 702.081,549.464 699.750 C 548.449 695.003,547.240 694.000,542.533 694.000 C 537.645 694.000,535.000 696.223,535.000 700.329 C 535.000 702.037,534.459 703.000,533.500 703.000 C 532.392 703.000,532.000 701.841,532.000 698.571 C 532.000 692.419,530.276 691.000,522.797 691.000 C 517.192 691.000,516.493 691.257,513.509 694.422 C 511.734 696.304,509.999 699.117,509.655 700.672 C 509.311 702.227,507.899 704.761,506.517 706.303 L 504.005 709.106 500.407 706.361 C 497.111 703.847,495.972 703.596,486.805 703.363 C 477.397 703.123,476.658 703.252,474.391 705.518 L 471.982 707.927 468.351 705.464 C 465.503 703.531,463.444 703.000,458.795 703.000 C 452.026 703.000,449.950 703.851,444.861 708.713 C 438.976 714.335,434.432 711.415,439.026 704.964 C 441.879 700.957,441.035 697.775,436.256 694.528 C 431.368 691.206,421.256 690.937,416.241 693.995 C 409.282 698.237,407.001 707.030,411.127 713.705 C 412.677 716.214,412.955 717.445,412.150 718.250 C 411.346 719.054,410.512 718.869,409.074 717.567 C 407.362 716.017,405.560 715.830,395.458 716.151 L 383.816 716.520 384.333 713.333 C 385.091 708.667,384.106 706.106,380.923 704.460 C 376.732 702.293,367.204 702.578,363.250 704.989 C 360.010 706.964,359.990 706.964,356.750 704.989 C 352.732 702.539,348.875 702.452,346.133 704.750 C 344.443 706.167,343.993 707.833,343.773 713.500 C 343.561 718.934,343.165 720.500,342.000 720.500 C 340.852 720.500,340.383 718.811,340.000 713.297 C 339.725 709.335,338.915 705.510,338.200 704.797 C 337.485 704.084,334.861 703.500,332.369 703.500 C 327.883 703.500,327.266 703.895,324.455 708.563 C 323.504 710.142,323.086 710.014,319.821 707.147 C 317.847 705.414,314.840 703.718,313.138 703.378 C 309.420 702.634,308.484 701.565,307.635 697.095 C 307.279 695.223,306.486 693.085,305.872 692.345 C 304.602 690.816,296.284 690.534,294.054 691.946 M170.819 695.743 C 171.057 697.422,170.246 698.513,167.592 700.078 C 163.017 702.778,162.013 706.408,162.006 720.282 C 161.999 732.774,163.329 737.084,167.921 739.459 C 170.985 741.044,171.550 742.404,170.393 745.418 C 169.036 748.954,161.426 746.059,158.185 740.774 C 155.144 735.816,152.743 726.342,152.810 719.564 C 152.884 712.031,156.199 700.492,159.225 697.232 C 163.612 692.506,170.238 691.655,170.819 695.743 M303.038 694.546 C 303.743 695.396,304.256 697.758,304.177 699.796 C 303.936 706.010,304.676 707.151,308.480 706.438 C 316.149 704.999,323.000 711.750,323.000 720.747 C 323.000 725.247,322.588 726.183,318.966 729.915 L 314.933 734.072 305.216 733.786 L 295.500 733.500 295.227 714.630 C 295.039 701.558,295.307 695.335,296.100 694.380 C 297.630 692.536,301.446 692.628,303.038 694.546 M528.043 696.000 C 528.884 699.382,528.175 700.983,525.364 702.052 C 522.245 703.237,522.255 706.000,525.378 706.000 C 528.499 706.000,530.222 708.205,529.822 711.690 C 529.556 714.008,528.844 714.662,525.750 715.426 L 522.000 716.353 522.000 723.595 C 522.000 733.000,521.561 734.000,517.428 734.000 C 513.112 734.000,512.000 731.943,512.000 723.960 C 512.000 718.836,511.576 717.284,509.500 714.818 C 508.125 713.184,507.000 711.447,507.000 710.958 C 507.000 710.469,508.350 708.532,510.000 706.653 C 511.650 704.774,513.000 702.329,513.000 701.222 C 513.000 700.114,514.619 697.786,516.597 696.049 C 519.463 693.532,520.928 692.953,523.807 693.195 C 526.708 693.440,527.544 693.993,528.043 696.000 M632.171 694.655 C 633.503 695.860,634.000 697.745,634.000 701.592 L 634.000 706.874 637.345 706.331 C 641.166 705.711,645.285 707.509,648.894 711.372 C 652.375 715.099,652.953 722.722,650.103 727.333 C 646.477 733.200,644.164 734.112,633.728 733.787 L 624.500 733.500 624.227 714.630 C 624.039 701.558,624.307 695.335,625.100 694.380 C 626.650 692.512,629.945 692.641,632.171 694.655 M752.274 694.147 C 761.406 699.034,765.107 720.326,759.415 735.223 C 756.790 742.093,753.737 745.526,749.253 746.651 C 746.239 747.408,743.530 744.998,744.430 742.362 C 744.779 741.338,746.487 739.600,748.225 738.500 C 750.615 736.987,751.700 735.281,752.674 731.500 C 755.911 718.929,752.566 700.000,747.107 700.000 C 745.576 700.000,743.914 696.387,744.611 694.572 C 745.318 692.729,749.221 692.513,752.274 694.147 M63.822 697.750 C 68.080 701.536,69.313 705.224,67.897 709.948 C 67.069 712.713,67.066 714.255,67.886 715.787 C 68.499 716.932,69.000 719.891,69.000 722.363 C 69.000 726.093,68.427 727.465,65.632 730.429 L 62.264 734.000 51.167 734.000 C 41.220 734.000,39.963 733.800,39.035 732.066 C 38.448 730.969,38.000 723.363,38.000 714.500 C 38.000 705.637,38.448 698.031,39.035 696.934 C 39.956 695.214,41.211 695.000,50.400 695.000 C 60.251 695.000,60.872 695.127,63.822 697.750 M108.960 696.452 C 111.560 699.584,109.811 701.481,104.021 701.810 C 101.018 701.980,97.984 702.598,97.280 703.182 C 96.358 703.947,96.000 707.936,96.000 717.431 C 96.000 732.293,95.292 734.387,90.451 733.836 L 87.500 733.500 87.000 718.711 C 86.432 701.906,86.501 702.040,78.357 702.015 C 72.754 701.999,71.147 700.461,73.039 696.928 C 73.995 695.141,75.305 695.000,90.913 695.000 C 104.416 695.000,107.994 695.288,108.960 696.452 M123.000 707.672 C 123.458 718.819,123.704 720.061,125.924 722.422 C 128.811 725.492,132.508 725.717,136.000 723.035 C 138.363 721.221,138.527 720.455,139.000 709.104 C 139.288 702.191,139.979 696.615,140.628 695.968 C 141.249 695.350,143.049 694.991,144.628 695.172 L 147.500 695.500 147.779 708.733 C 148.085 723.252,146.920 727.558,141.540 731.790 C 135.941 736.194,124.620 735.400,119.817 730.266 C 114.756 724.858,114.000 722.046,114.000 708.633 C 114.000 695.190,114.096 694.956,119.500 695.306 L 122.500 695.500 123.000 707.672 M204.095 697.285 C 208.183 700.040,208.697 701.917,206.207 704.993 C 204.511 707.087,204.010 707.199,201.016 706.155 C 191.533 702.850,184.000 706.562,184.000 714.541 C 184.000 721.458,190.103 726.231,196.768 724.528 C 202.932 722.953,205.324 723.371,206.947 726.308 C 208.441 729.010,208.393 729.210,205.694 731.558 C 203.230 733.703,201.930 734.000,195.022 734.000 C 187.690 734.000,186.861 733.778,182.828 730.736 C 166.634 718.521,174.235 695.532,194.602 695.123 C 199.436 695.025,201.409 695.475,204.095 697.285 M434.878 697.551 C 437.560 699.808,437.781 700.385,436.795 702.551 C 435.797 704.741,433.470 705.655,430.500 705.025 C 423.766 703.596,423.000 703.710,423.000 706.142 C 423.000 708.227,423.938 708.866,430.067 710.952 C 435.496 712.801,437.466 714.000,438.567 716.129 C 441.401 721.610,440.096 727.513,435.122 731.714 C 432.960 733.540,431.243 733.934,425.327 733.964 C 418.628 733.998,417.950 733.797,415.077 730.923 C 411.825 727.671,411.220 725.180,413.200 723.200 C 414.982 721.418,417.639 721.734,422.030 724.250 C 426.226 726.655,429.152 726.056,429.821 722.654 C 430.136 721.053,429.581 720.711,422.117 717.915 C 420.257 717.218,417.444 715.562,415.867 714.235 C 413.350 712.117,413.000 711.150,413.000 706.312 C 413.000 701.438,413.358 700.468,416.106 697.901 C 418.855 695.333,419.938 695.000,425.529 695.000 C 430.843 695.000,432.328 695.405,434.878 697.551 M256.066 697.035 C 257.130 697.605,258.000 699.094,258.000 700.344 C 258.000 703.455,260.005 705.795,263.000 706.179 C 265.117 706.451,265.549 707.097,265.819 710.398 C 266.163 714.591,265.048 715.959,261.269 715.985 C 258.238 716.005,257.214 720.152,259.413 723.507 C 260.311 724.878,261.695 726.000,262.488 726.000 C 264.752 726.000,266.271 729.626,265.000 732.000 C 264.154 733.580,262.906 734.000,259.054 734.000 C 254.837 734.000,253.828 733.584,251.589 730.923 C 249.579 728.535,249.000 726.757,249.000 722.975 C 249.000 719.164,248.455 717.515,246.500 715.405 C 245.125 713.922,244.000 711.908,244.000 710.931 C 244.000 709.953,245.125 707.816,246.500 706.182 C 247.875 704.548,249.000 702.412,249.000 701.434 C 249.000 699.519,251.733 696.000,253.221 696.000 C 253.722 696.000,255.002 696.466,256.066 697.035 M281.253 697.250 C 282.152 697.938,283.026 700.075,283.194 702.000 C 283.470 705.161,283.839 705.548,287.000 706.000 C 290.333 706.476,290.500 706.690,290.500 710.500 C 290.500 714.190,290.229 714.587,287.000 715.625 C 283.962 716.602,283.459 717.223,283.192 720.337 C 282.910 723.615,283.191 724.053,286.442 725.411 C 289.089 726.517,290.000 727.500,290.000 729.249 C 290.000 732.660,288.153 734.000,283.453 734.000 C 276.828 734.000,273.000 729.051,273.000 720.488 C 273.000 717.094,272.537 715.822,271.000 715.000 C 269.692 714.300,269.000 712.906,269.000 710.973 C 269.000 709.100,269.733 707.559,271.000 706.768 C 272.215 706.009,273.000 704.436,273.000 702.759 C 273.000 699.882,276.049 696.000,278.309 696.000 C 279.029 696.000,280.354 696.563,281.253 697.250 M545.747 697.250 C 546.293 697.938,547.043 700.188,547.415 702.250 C 547.953 705.238,548.539 706.003,550.295 706.015 C 553.928 706.041,555.174 707.441,554.824 711.105 C 554.553 713.948,553.979 714.654,551.294 715.444 C 546.225 716.938,546.081 723.837,551.080 725.724 C 552.969 726.437,554.000 727.534,554.000 728.831 C 554.000 733.087,552.961 734.001,548.143 733.985 C 545.589 733.976,543.024 733.639,542.442 733.235 C 539.658 731.302,538.000 727.254,538.000 722.393 C 538.000 717.989,537.632 716.989,535.500 715.592 C 533.985 714.599,533.000 713.010,533.000 711.559 C 533.000 708.200,533.989 706.000,535.500 706.000 C 537.006 706.000,538.000 703.802,538.000 700.468 C 538.000 696.770,543.540 694.469,545.747 697.250 M48.425 706.334 C 48.144 707.067,48.046 711.455,48.207 716.084 L 48.500 724.500 51.371 724.828 C 56.344 725.396,59.000 724.236,59.000 721.494 C 59.000 719.620,58.159 718.676,55.500 717.564 C 52.797 716.435,52.000 715.521,52.000 713.551 C 52.000 712.041,52.567 711.000,53.389 711.000 C 54.153 711.000,55.841 710.109,57.139 709.020 C 59.154 707.331,59.280 706.893,58.000 706.036 C 55.782 704.549,49.030 704.759,48.425 706.334 M234.531 708.019 C 237.963 710.140,241.000 716.055,241.000 720.619 C 241.000 724.384,238.165 729.747,234.972 732.020 C 232.936 733.470,230.568 734.000,226.130 734.000 C 220.846 734.000,219.640 733.622,216.712 731.052 C 214.865 729.431,212.758 726.296,212.028 724.086 C 210.866 720.564,210.922 719.493,212.480 715.414 C 213.609 712.456,215.302 710.165,217.122 709.130 C 218.698 708.233,219.990 707.163,219.994 706.750 C 219.997 706.337,222.534 706.000,225.632 706.000 C 229.536 706.000,232.266 706.619,234.531 708.019 M336.294 707.773 C 337.364 708.955,337.998 711.869,338.199 716.523 L 338.500 723.500 341.567 723.800 C 345.420 724.176,347.000 721.226,347.000 713.653 C 347.000 710.764,347.540 707.860,348.200 707.200 C 350.037 705.363,353.808 705.772,354.965 707.934 C 356.491 710.786,356.312 731.504,354.750 732.762 C 354.063 733.317,349.450 733.793,344.500 733.821 C 334.710 733.876,332.568 732.880,329.405 726.800 C 327.639 723.405,327.487 708.913,329.200 707.200 C 330.950 705.450,334.448 705.733,336.294 707.773 M380.429 707.571 C 382.193 709.336,382.383 710.848,381.095 712.880 C 380.461 713.882,379.025 714.088,375.861 713.632 C 368.918 712.632,367.742 714.486,374.118 716.382 C 380.464 718.268,381.329 718.794,382.850 721.684 C 384.666 725.134,384.207 728.297,381.460 731.260 C 379.139 733.762,378.289 734.000,371.648 734.000 C 365.713 734.000,363.975 733.625,362.189 731.961 C 359.564 729.515,359.528 729.178,361.655 726.829 C 363.455 724.839,366.515 724.406,367.500 726.000 C 368.238 727.193,375.000 727.358,375.000 726.183 C 375.000 725.733,372.529 724.586,369.509 723.634 C 363.435 721.720,362.000 719.951,362.000 714.380 C 362.000 708.341,364.962 706.000,372.603 706.000 C 376.955 706.000,379.335 706.478,380.429 707.571 M467.662 708.839 C 471.594 712.430,472.771 717.174,470.565 720.541 C 469.076 722.813,468.347 723.000,460.977 723.000 C 456.590 723.000,453.000 723.374,453.000 723.831 C 453.000 725.687,458.006 727.263,462.139 726.708 C 467.030 726.052,470.000 727.263,470.000 729.913 C 470.000 733.230,467.108 734.500,459.552 734.500 C 450.793 734.500,447.656 732.737,444.760 726.189 C 442.960 722.121,442.850 720.989,443.867 717.024 C 444.651 713.969,446.214 711.444,448.681 709.250 C 451.955 706.336,452.966 706.000,458.444 706.000 C 463.759 706.000,464.959 706.369,467.662 708.839 M483.701 707.101 C 484.502 707.902,485.781 707.847,488.399 706.900 C 491.630 705.732,492.460 705.825,496.555 707.815 C 502.324 710.617,504.000 714.339,504.000 724.345 C 504.000 732.613,502.954 734.355,498.310 733.822 C 495.560 733.507,495.489 733.339,495.000 726.000 C 494.414 717.203,493.824 716.000,490.101 716.000 C 486.578 716.000,485.006 719.165,484.985 726.297 C 484.965 732.986,484.125 734.228,479.895 733.824 L 476.500 733.500 476.210 722.000 C 475.845 707.551,476.195 706.000,479.819 706.000 C 481.349 706.000,483.095 706.495,483.701 707.101 M582.896 709.535 C 586.414 713.542,586.999 718.239,584.345 721.171 C 583.028 722.627,581.191 723.000,575.345 723.000 C 571.294 723.000,568.000 723.433,568.000 723.965 C 568.000 725.906,572.369 727.235,576.964 726.691 C 582.695 726.012,584.255 726.894,583.830 730.569 C 583.549 733.000,582.909 733.547,579.500 734.271 C 577.300 734.739,573.158 734.839,570.295 734.494 C 566.009 733.978,564.553 733.255,562.045 730.399 C 559.308 727.281,559.000 726.262,559.000 720.310 C 559.000 713.876,559.114 713.582,563.042 709.845 C 566.861 706.212,567.435 706.000,573.439 706.000 C 579.460 706.000,579.955 706.185,582.896 709.535 M601.000 707.087 C 601.825 707.110,603.690 706.831,605.145 706.468 C 609.551 705.367,614.946 708.624,617.215 713.753 C 619.625 719.201,620.538 727.597,619.118 731.250 C 618.236 733.520,617.441 734.000,614.560 734.000 C 610.067 734.000,609.000 732.019,609.000 723.673 C 609.000 716.952,608.374 716.000,603.953 716.000 C 601.228 716.000,600.000 719.047,600.000 725.812 C 600.000 732.524,598.719 734.328,594.310 733.822 L 591.500 733.500 591.218 721.055 C 591.062 714.211,591.179 707.975,591.478 707.197 C 591.876 706.160,593.017 705.952,595.760 706.414 C 597.817 706.761,600.175 707.064,601.000 707.087 M679.837 708.848 C 683.679 712.436,684.790 716.498,682.870 719.931 C 681.545 722.300,680.774 722.539,672.967 723.000 L 664.500 723.500 667.281 725.386 C 669.453 726.858,671.135 727.144,674.956 726.692 C 680.239 726.066,682.463 727.357,681.824 730.677 C 681.234 733.741,677.066 735.139,670.000 734.646 C 663.845 734.216,663.301 733.967,659.750 729.967 C 656.451 726.251,656.001 725.126,656.007 720.621 C 656.018 711.419,661.613 706.018,671.144 706.007 C 675.973 706.001,677.229 706.411,679.837 708.848 M707.750 707.236 C 709.202 708.408,709.368 711.870,708.070 713.921 C 707.575 714.703,705.219 715.603,702.835 715.921 L 698.500 716.500 698.000 724.204 C 697.725 728.441,696.995 732.411,696.377 733.027 C 695.760 733.642,693.735 734.000,691.877 733.823 L 688.500 733.500 688.218 721.141 C 688.054 713.916,688.353 708.280,688.938 707.574 C 690.181 706.077,705.962 705.793,707.750 707.236 M739.750 707.237 C 740.638 707.953,741.000 712.133,741.000 721.662 C 741.000 738.008,739.731 741.496,732.558 744.868 C 727.153 747.408,724.670 747.474,720.000 745.199 C 717.269 743.869,716.433 742.809,716.196 740.375 C 715.816 736.467,717.774 735.552,723.102 737.149 C 726.484 738.162,727.257 738.077,728.997 736.502 C 732.459 733.370,731.510 732.293,725.712 732.774 C 720.575 733.200,720.319 733.096,716.712 729.103 C 713.524 725.574,713.001 724.324,713.007 720.247 C 713.014 714.958,715.199 710.821,719.465 708.023 C 722.501 706.031,737.533 705.449,739.750 707.237 M456.049 715.315 C 451.771 717.496,454.357 719.880,459.579 718.570 C 462.452 717.848,462.698 716.444,460.187 715.100 C 458.963 714.445,457.617 714.515,456.049 715.315 M569.131 716.342 C 567.680 718.090,568.677 719.000,572.044 719.000 C 575.399 719.000,577.865 716.546,575.444 715.617 C 572.837 714.617,570.323 714.905,569.131 716.342 M667.200 716.200 C 665.095 718.305,665.897 719.129,669.742 718.810 C 672.357 718.593,673.583 717.973,673.815 716.750 C 674.068 715.412,673.469 715.000,671.273 715.000 C 669.693 715.000,667.860 715.540,667.200 716.200 M222.011 717.487 C 220.337 719.504,221.533 723.717,224.002 724.501 C 227.060 725.471,229.928 724.134,230.609 721.420 C 231.404 718.253,229.489 716.000,226.000 716.000 C 224.485 716.000,222.690 716.669,222.011 717.487 M306.200 717.200 C 303.132 720.268,307.332 725.963,311.155 723.917 C 314.556 722.097,312.897 716.000,309.000 716.000 C 308.120 716.000,306.860 716.540,306.200 717.200 M634.415 717.360 C 634.100 718.182,633.990 719.900,634.171 721.177 C 634.429 722.996,635.127 723.500,637.391 723.500 C 640.955 723.500,643.001 720.816,641.394 718.250 C 639.969 715.974,635.181 715.364,634.415 717.360 M723.040 717.452 C 721.405 719.422,722.589 722.659,725.195 723.341 C 729.611 724.495,732.818 720.218,729.800 717.200 C 728.155 715.555,724.501 715.691,723.040 717.452 M228.000 720.000 C 228.000 720.550,227.325 721.000,226.500 721.000 C 225.675 721.000,225.000 720.550,225.000 720.000 C 225.000 719.450,225.675 719.000,226.500 719.000 C 227.325 719.000,228.000 719.450,228.000 720.000 M291.819 721.743 C 292.098 723.706,291.848 723.879,289.819 723.130 C 286.568 721.930,286.037 718.726,289.161 719.169 C 290.693 719.386,291.610 720.274,291.819 721.743 M407.801 722.086 C 408.279 726.198,406.138 727.117,396.847 726.792 C 388.974 726.517,388.481 726.368,388.171 724.177 C 387.480 719.300,388.283 718.903,398.233 719.212 C 407.370 719.496,407.504 719.536,407.801 722.086 M554.812 721.261 C 555.043 722.461,554.504 723.000,553.073 723.000 C 551.642 723.000,551.000 722.358,551.000 720.927 C 551.000 718.364,554.310 718.655,554.812 721.261 M54.269 721.656 C 53.592 721.930,52.242 721.947,51.269 721.693 C 50.296 721.439,50.850 721.215,52.500 721.195 C 54.150 721.175,54.946 721.382,54.269 721.656 M587.683 726.188 C 587.364 726.985,587.127 726.748,587.079 725.583 C 587.036 724.529,587.272 723.939,587.604 724.271 C 587.936 724.603,587.972 725.466,587.683 726.188 " stroke="none" fill="undefined" fill-rule="evenodd"/></svg>